<svg width="20" height="20" viewBox="0 0 20 20" fill="none" xmlns="http://www.w3.org/2000/svg">
<path d="M14.5292 8.65784V4.87289C14.5292 4.76456 14.4792 4.66446 14.4084 4.58527L10.1649 0.129242C10.0857 0.0459289 9.97311 0 9.86066 0H3.13275C1.89069 0 0.89856 1.01288 0.89856 2.2551V14.9771C0.89856 16.2193 1.89069 17.2156 3.13275 17.2156H8.44342C9.44791 18.8829 11.2738 20 13.3537 20C16.5133 20 19.0936 17.4323 19.0936 14.2685C19.0979 11.5048 17.1136 9.19556 14.5292 8.65784ZM10.2775 1.46317L13.1245 4.46014H11.2779C10.7277 4.46014 10.2775 4.00589 10.2775 3.45566V1.46317ZM3.13275 16.3818C2.35333 16.3818 1.7323 15.7565 1.7323 14.9771V2.2551C1.7323 1.47141 2.35333 0.83374 3.13275 0.83374H9.44379V3.45566C9.44379 4.46854 10.265 5.29388 11.2779 5.29388H13.6955V8.54935C13.5705 8.54523 13.4704 8.53271 13.3621 8.53271C11.9073 8.53271 10.5693 9.09134 9.56052 9.96674H4.26663C4.03729 9.96674 3.84976 10.1543 3.84976 10.3835C3.84976 10.6128 4.03729 10.8003 4.26663 10.8003H8.78522C8.4892 11.2172 8.24323 11.6341 8.05157 12.0926H4.26663C4.03729 12.0926 3.84976 12.2801 3.84976 12.5095C3.84976 12.7386 4.03729 12.9263 4.26663 12.9263H7.78058C7.67636 13.3432 7.62219 13.8058 7.62219 14.2685C7.62219 15.0188 7.76807 15.7608 8.03067 16.3861H3.13275V16.3818ZM13.358 19.1705C10.6569 19.1705 8.46005 16.9737 8.46005 14.2726C8.46005 11.5715 10.6526 9.37469 13.358 9.37469C16.0632 9.37469 18.2557 11.5715 18.2557 14.2726C18.2557 16.9737 16.0591 19.1705 13.358 19.1705Z" fill="white"/>
</svg>
