<svg width="21" height="21" viewBox="0 0 21 21" fill="none" xmlns="http://www.w3.org/2000/svg">
<path d="M10.4997 0C4.70095 0 0 4.7013 0 10.4999C0 16.2984 4.70095 21.0001 10.4997 21.0001C16.2985 21.0001 21 16.2987 21 10.4999C21 4.70102 16.2985 0 10.4997 0ZM15.4912 7.5562L14.4939 8.5535L12.4638 6.52355L11.6936 7.2937L13.7237 9.32378L8.74446 14.3026L6.71451 12.2729L5.94437 13.043L7.97431 15.073L7.47815 15.5692L7.4687 15.5597C7.41368 15.6503 7.32422 15.7164 7.21796 15.74L5.32494 16.1621C5.29659 16.1684 5.26775 16.1715 5.23926 16.1715C5.13593 16.1715 5.03555 16.1308 4.96114 16.0562C4.86566 15.9611 4.8259 15.8237 4.8553 15.692L5.2772 13.7995C5.301 13.6934 5.36722 13.6037 5.45766 13.5488L5.44807 13.5392L13.461 5.52591C13.5785 5.40866 13.7693 5.40866 13.8868 5.52626L15.4913 7.13046C15.6088 7.24792 15.6088 7.43874 15.4912 7.5562Z" fill="#D2D2D2"/>
</svg>
