<svg width="9" height="18" viewBox="0 0 9 18" fill="none" xmlns="http://www.w3.org/2000/svg">
<path d="M1.97188 3.486C1.97188 3.93961 1.97188 5.96423 1.97188 5.96423H0.15625V8.99462H1.97188V17.9999H5.70157V8.99487H8.20437C8.20437 8.99487 8.43877 7.54182 8.55239 5.95306C8.22663 5.95306 5.71568 5.95306 5.71568 5.95306C5.71568 5.95306 5.71568 4.19007 5.71568 3.88106C5.71568 3.57137 6.12233 3.15481 6.52425 3.15481C6.92541 3.15481 7.77211 3.15481 8.55632 3.15481C8.55632 2.74221 8.55632 1.31662 8.55632 1.0825e-08C7.50942 1.0825e-08 6.31839 1.0825e-08 5.79339 1.0825e-08C1.87969 -0.000209235 1.97188 3.03319 1.97188 3.486Z" fill="#6A9ADA"/>
</svg>
