<svg width="19" height="20" viewBox="0 0 19 20" fill="none" xmlns="http://www.w3.org/2000/svg">
<path fill-rule="evenodd" clip-rule="evenodd" d="M5.7331 11.0497L8.54446 14.0243L8.54605 14.026C8.67417 14.1586 8.85302 14.2416 9.04922 14.2416C9.24552 14.2416 9.42445 14.1586 9.55251 14.0259L9.55386 14.0245L12.371 11.0489C12.6343 10.7752 12.6121 10.343 12.3377 10.0921C12.0587 9.8324 11.617 9.85478 11.3618 10.1262L9.73961 11.8383V7.19421C9.73961 6.8214 9.43027 6.51581 9.04922 6.51581C8.66818 6.51581 8.35884 6.8214 8.35884 7.19421V11.8374L6.7411 10.1257L6.73956 10.1241C6.48086 9.85617 6.04483 9.83104 5.76464 10.093C5.49308 10.347 5.46758 10.7738 5.73231 11.0488L5.7331 11.0497ZM9.53006 12.3606V7.19421L9.52924 12.3614L9.53006 12.3606ZM6.58732 10.2651L8.56757 12.3604V12.3614L6.58732 10.2651Z" fill="white"/>
<path fill-rule="evenodd" clip-rule="evenodd" d="M13.0067 15.378H5.09218C4.71113 15.378 4.40179 15.6836 4.40179 16.0564C4.40179 16.429 4.71109 16.7348 5.09218 16.7348H13.0116C13.3927 16.7348 13.702 16.429 13.702 16.0564C13.702 15.6822 13.3913 15.378 13.0067 15.378Z" fill="white"/>
<path fill-rule="evenodd" clip-rule="evenodd" d="M17.1436 5.7508C17.1436 5.56583 17.0582 5.401 16.9512 5.28322L12.0422 0.215403C11.9149 0.0836558 11.7362 0 11.544 0H3.77842C2.2293 0 0.953125 1.25165 0.953125 2.77453V17.2253C0.953125 18.7483 2.2293 20 3.77842 20H14.3183C15.8674 20 17.1436 18.7483 17.1436 17.2253V5.7508ZM13.178 5.26841C12.5433 5.26841 12.0287 4.76683 12.0287 4.14226V1.87575L12.0295 1.87659L12.0287 4.14226C12.0287 4.76683 12.5433 5.26841 13.178 5.26841ZM12.2391 4.14206V2.3903L14.8263 5.06299H13.1788C12.6596 5.06299 12.2391 4.65308 12.2391 4.14206ZM14.3183 18.6432H3.77842C2.9948 18.6432 2.33389 18.0015 2.33389 17.2253V2.77453C2.33389 2.00256 2.99073 1.35681 3.77842 1.35681H10.8583V4.14206C10.8583 5.40486 11.8944 6.41979 13.1788 6.41979H15.7628V17.2253C15.7628 18.0018 15.1064 18.6432 14.3183 18.6432Z" fill="white"/>
</svg>
