<svg width="21" height="13" viewBox="0 0 21 13" fill="none" xmlns="http://www.w3.org/2000/svg">
<path d="M17.584 5V2.5H16.334V5H13.834V6.25H16.334V8.75H17.584V6.25H20.084V5H17.584Z" fill="#6A9ADA"/>
<path d="M6.33398 5V7.5H9.87023C9.35398 8.955 7.96398 10 6.33398 10C4.26648 10 2.58398 8.3175 2.58398 6.25C2.58398 4.1825 4.26648 2.5 6.33398 2.5C7.23023 2.5 8.09273 2.82125 8.76273 3.405L10.4052 1.52C9.28023 0.54 7.83523 0 6.33398 0C2.88773 0 0.0839844 2.80375 0.0839844 6.25C0.0839844 9.69625 2.88773 12.5 6.33398 12.5C9.78023 12.5 12.584 9.69625 12.584 6.25V5H6.33398Z" fill="#6A9ADA"/>
</svg>
