<svg width="21" height="21" viewBox="0 0 21 21" fill="none" xmlns="http://www.w3.org/2000/svg">
<path d="M7.15869 15.7719C7.15869 15.8231 7.18063 15.8377 7.2245 15.8377H13.7687C13.8199 15.8377 13.8345 15.8158 13.8345 15.7719V8.03586H7.15869V15.7719ZM11.8822 8.92061H12.65V15.165H11.8895V8.92061H11.8822ZM10.1274 8.92061H10.8878V15.165H10.1274V8.92061ZM8.37248 8.92061H9.13293V15.165H8.37248V8.92061Z" fill="#F55C5C"/>
<path d="M12.1016 5.16226H8.90625V5.84228H12.1016V5.16226Z" fill="#F55C5C"/>
<path d="M14.4851 6.5954H6.51503C6.46384 6.5954 6.44922 6.62465 6.44922 6.66852V7.27541H14.5582V6.66852C14.5582 6.62465 14.5363 6.5954 14.4851 6.5954Z" fill="#F55C5C"/>
<path d="M10.5 0C4.7016 0 0 4.7016 0 10.5C0 16.2984 4.7016 21 10.5 21C16.2984 21 21 16.2984 21 10.5C21 4.7016 16.2984 0 10.5 0ZM15.3186 7.27542V8.02855H14.602V15.7646C14.602 16.2326 14.2364 16.5909 13.7685 16.5909H7.23155C6.76358 16.5909 6.40529 16.2326 6.40529 15.7646V8.03586H5.68141V7.27542V6.66852C5.68141 6.20056 6.04701 5.83496 6.51497 5.83496H8.14554V4.78935C8.14554 4.5773 8.31372 4.40912 8.52577 4.40912H8.55501H8.58426H12.4084C12.4157 4.40912 12.4304 4.41643 12.4377 4.42375C12.445 4.41643 12.4596 4.40912 12.4815 4.40912C12.6936 4.40912 12.8691 4.5773 12.8691 4.78935V5.84958H14.4997C14.9676 5.84958 15.3332 6.21518 15.3332 6.68315V7.27542H15.3186Z" fill="#E94444"/>
</svg>
