<svg width="31" height="31" viewBox="0 0 31 31" fill="none" xmlns="http://www.w3.org/2000/svg">
<circle cx="15.5" cy="15.5" r="15.5" fill="#C4DEC3"/>
<circle cx="15.5" cy="15.5" r="13.5" fill="#2CAD29"/>
<path d="M22.939 21.5287L21.359 19.4732C21.3098 19.409 21.2362 19.3681 21.1557 19.3601C20.0838 19.2538 19.5115 19.0262 19.0514 18.8432C18.6445 18.6814 18.2238 18.5141 17.6809 18.5141C16.854 18.5141 16.2219 18.955 15.7931 19.4548V19.4439C16.0319 18.8932 16.6685 18.0243 17.6575 18.0243C18.083 18.0243 18.4142 18.1562 18.7982 18.3088C19.1185 18.4362 19.5172 18.5948 20.1 18.7172C20.2584 18.7505 20.4137 18.6491 20.447 18.4908C20.4802 18.3325 20.3788 18.1771 20.2205 18.1439C19.6869 18.0318 19.3298 17.8898 19.0146 17.7643C18.6118 17.6041 18.1952 17.4384 17.6575 17.4384C16.6279 17.4384 15.9033 18.1283 15.5001 18.7567C15.097 18.1283 14.3724 17.4384 13.3427 17.4384C12.8051 17.4384 12.3884 17.6041 11.9855 17.7644C11.5308 17.9453 10.9649 18.1703 9.90502 18.2754C9.744 18.2914 9.62648 18.4348 9.64238 18.5958C9.65841 18.7568 9.80191 18.8744 9.96292 18.8585C11.1048 18.7452 11.739 18.4929 12.2021 18.3088C12.5858 18.1562 12.9172 18.0243 13.3427 18.0243C14.3317 18.0243 14.9685 18.8934 15.2072 19.444V19.4548C14.7783 18.955 14.1462 18.514 13.3192 18.514C12.7764 18.514 12.3557 18.6814 11.9485 18.8433C11.4887 19.0262 10.9165 19.2538 9.84448 19.3601C9.76403 19.3681 9.69045 19.409 9.64113 19.4732L8.06122 21.5287C7.99313 21.6172 7.98135 21.7366 8.03067 21.8368C8.07999 21.9368 8.18184 22.0002 8.29341 22.0002H22.7069C22.8184 22.0002 22.9203 21.9368 22.9696 21.8368C23.0189 21.7366 23.0071 21.6172 22.939 21.5287V21.5287ZM17.6809 19.0999C18.1116 19.0999 18.4467 19.2332 18.8351 19.3877C19.2856 19.5669 19.8963 19.8098 20.9711 19.9298L22.109 21.4103C20.1512 21.368 19.2219 20.9984 18.5947 20.7489C18.2307 20.6042 17.9903 20.5085 17.6809 20.5085C17.1395 20.5085 16.7684 20.9149 16.6146 21.2639C16.6133 21.2666 16.6119 21.2694 16.6105 21.2722L16.5438 21.4143H15.7931V20.5376C16.0345 19.9803 16.6792 19.0999 17.6809 19.0999V19.0999ZM10.0292 19.9298C11.104 19.8098 11.7146 19.5668 12.1654 19.3876C12.5534 19.2332 12.8887 19.0999 13.3192 19.0999C14.321 19.0999 14.9657 19.9803 15.2072 20.5376V21.4143H14.4564L14.3898 21.2722C14.3884 21.2694 14.387 21.2666 14.3856 21.2639C14.2317 20.9149 13.8607 20.5085 13.3193 20.5085C13.01 20.5085 12.7696 20.6042 12.4056 20.7489C11.7783 20.9984 10.849 21.368 8.89123 21.4103L10.0292 19.9298ZM12.6222 21.2933C12.9447 21.165 13.1223 21.0944 13.3192 21.0944C13.572 21.0944 13.7307 21.2933 13.804 21.4143H12.3122C12.4236 21.3723 12.5262 21.3315 12.6222 21.2933V21.2933ZM17.1963 21.4143C17.2695 21.2933 17.4283 21.0944 17.6809 21.0944C17.878 21.0944 18.0556 21.165 18.3782 21.2934C18.4741 21.3315 18.5767 21.3723 18.6881 21.4143H17.1963Z" fill="white"/>
<path d="M21.0269 18.8578L21.0375 18.8589C21.0473 18.8598 21.057 18.8603 21.0665 18.8603C21.2155 18.8603 21.3428 18.7473 21.3577 18.596C21.3735 18.435 21.2559 18.2916 21.0949 18.2758L21.0844 18.2748C20.9234 18.2588 20.78 18.3765 20.7641 18.5375C20.7482 18.6985 20.8659 18.8419 21.0269 18.8578V18.8578Z" fill="white"/>
<path d="M14.5115 14.2088C14.4354 14.2153 14.3643 14.2514 14.3142 14.3099C14.2584 14.3747 14.2339 14.4607 14.2469 14.5451C14.3683 15.336 14.7892 15.8764 15.4037 16.0617C15.3896 16.1724 15.3766 16.2833 15.3649 16.3945L15.2089 17.8821C15.1921 18.043 15.3088 18.1872 15.4697 18.204C15.4802 18.2052 15.4905 18.2056 15.5006 18.2056C15.6487 18.2056 15.7759 18.0938 15.7917 17.9432L15.9476 16.4557C15.959 16.3475 15.9717 16.2398 15.9852 16.1324C17.3479 16.1156 18.1798 15.2466 18.5963 13.4094C18.6426 13.205 18.6988 12.967 18.7634 12.7018C18.7839 12.6178 18.7663 12.5291 18.7152 12.4593C18.6962 12.4335 18.6733 12.4111 18.6476 12.3931L18.7629 12.3271C18.8321 12.2877 18.8822 12.2215 18.9016 12.1442C19.4134 10.1072 20.1628 7.39929 20.1703 7.37217C20.1956 7.28108 20.1754 7.18346 20.116 7.11C20.0567 7.03641 19.9651 6.99579 19.8712 7.00151C19.772 7.00712 17.4185 7.17717 15.4839 10.3245C15.4599 10.3635 15.4366 10.4022 15.4134 10.441C15.3778 10.5003 15.3645 10.5703 15.3754 10.6385L15.5222 11.5418H15.0247C14.9073 11.5418 14.8013 11.6118 14.7552 11.7197C14.4415 12.4547 14.2613 13.1447 14.2194 13.7706C14.2138 13.8538 14.244 13.9355 14.3024 13.9952L14.5115 14.2088ZM18.3638 11.8804L17.5814 12.3275C17.4693 12.3916 17.4123 12.5216 17.4412 12.6474C17.4702 12.7733 17.5782 12.8655 17.7071 12.8741L18.1128 12.9014C18.0805 13.0373 18.0511 13.1638 18.0248 13.2798C17.6019 15.1456 16.821 15.514 16.071 15.5451C16.5008 12.9532 17.5885 10.5463 19.2528 8.50669C18.9971 9.44964 18.6482 10.7544 18.3638 11.8804V11.8804ZM15.2205 12.1278H15.8665C15.9523 12.1278 16.0339 12.09 16.0896 12.0246C16.1453 11.9591 16.1694 11.8726 16.1557 11.7878L15.9711 10.6509C15.975 10.6444 15.979 10.6379 15.983 10.6314C16.9066 9.12876 17.9249 8.38092 18.6164 8.01816C18.7802 7.93222 18.9337 7.86344 19.0739 7.80806C18.0658 8.97851 17.2387 10.2869 16.6141 11.7014C16.0809 12.9087 15.7042 14.173 15.4897 15.4709C15.1706 15.3402 14.9995 15.0606 14.9077 14.7936H15.2073C15.3253 14.7936 15.4317 14.7229 15.4774 14.6142C15.5231 14.5056 15.4992 14.38 15.4166 14.2957L14.8147 13.6809C14.8621 13.2049 14.9983 12.6837 15.2205 12.1278V12.1278Z" fill="white"/>
</svg>
