<svg width="270" height="54" viewBox="0 0 270 54" fill="none" xmlns="http://www.w3.org/2000/svg">
<path d="M78.2218 8.43242C71.4289 8.43242 66.8312 8.43242 60.1211 8.43242C60.1211 17.9179 60.1211 27.4852 60.1211 37.0524C66.8312 37.0524 71.8017 37.0524 78.5946 37.0524C78.5946 34.8855 78.5946 32.6777 78.5946 30.5516C74.2455 30.5516 71.7602 30.5516 67.4939 30.5516C67.4939 28.8344 67.4939 27.199 67.4939 25.5227H77.352C77.352 23.3557 77.352 21.1888 77.352 19.0218H67.4939V14.9741C71.7602 14.9741 73.9141 14.9741 78.2218 14.9741C78.2218 12.7663 78.2218 10.5585 78.2218 8.43242Z" fill="#009846"/>
<path d="M83.2933 26.5914V23.2375H93.3248V26.5914H83.2933Z" fill="#009846"/>
<path d="M119.288 8.43242H107.483C107.483 10.5585 107.483 12.6845 107.483 14.9333H111.708V27.4034C111.708 29.693 110.259 30.8378 108.105 30.8378C105.951 30.8378 104.253 29.6521 104.253 27.4034V23.8055C101.933 23.8055 99.5307 23.8055 97.2526 23.8055V27.5261C97.2526 33.7816 102.14 37.3795 108.105 37.3795C114.069 37.3795 119.288 33.7816 119.288 27.5261V8.43242Z" fill="#009846"/>
<path d="M144.891 37.0524H152.139V35.9894L139.05 8.06445H135.861L122.814 35.9894V37.0524H130.062L131.76 33.4545H143.192L144.891 37.0524ZM140.79 27.199H134.163L137.435 19.676L140.79 27.199Z" fill="#009846"/>
<path d="M169.988 20.7799L158.639 8.35065H155.905V37.0524C158.432 37.0524 160.958 37.0524 163.485 37.0524V24.2961L169.615 30.6743H170.444L176.615 24.2961V37.0524C179.142 37.0524 181.668 37.0524 184.195 37.0524V8.35065H181.544L169.988 20.7799Z" fill="#009846"/>
<path d="M212.997 17.2229C212.997 12.2757 208.979 8.43242 203.967 8.43242H191.583V37.0524H205.168C211.092 37.0524 214.157 33.0047 214.198 28.0167C214.198 25.4818 213.08 23.3557 210.719 22.17C212.127 21.0252 212.997 18.9401 212.997 17.2229ZM204.63 25.6862C207.612 25.6862 207.654 30.5516 204.671 30.5516H198.748V25.6862H204.63ZM203.387 14.9741C206.37 14.9741 206.37 19.5942 203.429 19.5942H198.748V14.9741H203.387Z" fill="#009846"/>
<path d="M232.759 25.032L242.534 9.53634V8.43242H234.499L229.238 17.9588H228.948L223.688 8.43242H215.694V9.53634L225.428 25.032V37.0524H232.759V25.032Z" fill="#009846"/>
<path d="M253.968 8.43242C251.441 8.43242 248.997 8.43242 246.512 8.43242V37.0524C252.394 37.0524 258.524 37.0524 264.489 37.0524C264.489 34.5993 264.489 32.923 264.489 30.4698H253.968C253.968 18.2859 253.968 23.2331 253.968 8.43242Z" fill="#009846"/>
<path d="M26.8267 53.26C41.4248 53.26 53.2589 41.5787 53.2589 27.1691C53.2589 12.7594 41.4248 1.07812 26.8267 1.07812C12.2286 1.07812 0.394531 12.7594 0.394531 27.1691C0.394531 41.5787 12.2286 53.26 26.8267 53.26Z" fill="#1C9BD7"/>
<path d="M26.9476 52.6889C41.2198 52.6889 52.7898 41.2684 52.7898 27.1804C52.7898 13.0924 41.2198 1.67188 26.9476 1.67188C12.6754 1.67188 1.10547 13.0924 1.10547 27.1804C1.10547 41.2684 12.6754 52.6889 26.9476 52.6889Z" fill="#F3EA27"/>
<path d="M26.825 45.2969C36.9672 45.2969 45.189 37.1812 45.189 27.1699C45.189 17.1587 36.9672 9.04297 26.825 9.04297C16.6828 9.04297 8.46094 17.1587 8.46094 27.1699C8.46094 37.1812 16.6828 45.2969 26.825 45.2969Z" fill="#3A4A92"/>
<path d="M8.33186 25.8026C8.57872 21.464 10.5897 17.8089 12.1492 15.9903L11.5832 15.5683C11.4989 15.6693 11.3965 15.8298 11.228 16.0556C10.3429 17.2681 9.64443 18.5756 9.05438 19.9425C8.87375 20.3645 8.7172 20.6736 8.60882 20.8756C8.68107 21.3749 8.81354 21.8444 8.69312 21.9573C8.54861 22.094 7.90436 22.6764 7.74782 22.8012C7.64546 22.8845 7.48891 23.0212 7.41666 23.0093C7.37452 23.0033 7.35043 22.7715 7.33839 22.6408C7.32635 22.3971 7.29624 22.1356 7.23603 21.8147C7.1698 21.4343 7.09153 21.4046 7.33839 21.256C7.5431 21.1312 7.96458 20.7687 8.14521 20.6854C8.38605 20.1089 8.62689 19.372 8.89783 18.8133C9.45778 17.6781 10.2887 16.2102 11.0895 15.2057L10.8306 15.0156L10.5295 14.7897C9.83711 15.7882 8.89181 17.167 8.40411 18.2844C8.16929 18.8193 7.95855 19.3601 7.97661 19.4195C8.01876 19.5681 8.15122 20.0317 8.13918 20.1981C7.8863 20.3467 7.75384 20.4239 7.38656 20.6795C7.32635 20.7211 7.20593 20.8103 7.1698 20.7508C7.0253 20.5071 6.90488 20.0436 6.80252 19.6573C6.77844 19.5741 6.97713 19.479 7.12164 19.3839C7.2842 19.2769 7.44075 19.2591 7.46483 19.1996C8.00672 17.5652 9.11458 15.7822 10.0539 14.4628C10.0599 14.4569 10.0659 14.445 10.0719 14.4391L9.78894 14.2311C9.77087 14.2192 9.75281 14.2132 9.73475 14.2013C9.68056 14.1657 9.64443 14.136 9.62035 14.1062L9.51197 14.029C9.50595 14.0409 9.49391 14.0528 9.48789 14.0646C8.41013 15.5386 7.33237 17.4523 6.69414 19.1521C6.48341 19.7167 6.1944 20.2932 6.66404 20.8875C6.71823 20.9588 6.73027 20.9172 6.70618 21.0183C6.54964 21.6007 6.43524 22.0999 6.24859 22.7596C5.92346 22.4744 5.66455 22.2664 5.41167 21.993C5.3635 21.9395 5.41167 21.7196 5.44779 21.5888C5.61036 21.0004 5.68262 20.5487 5.84518 19.9604C6.44728 17.7732 7.72976 15.5207 9.06642 13.6902L8.8316 13.5119C8.81956 13.506 8.80149 13.5 8.78945 13.4881C8.77139 13.4763 8.75935 13.4644 8.74731 13.4465L8.48238 13.2504C7.1698 14.9977 5.80303 17.1195 5.08051 19.1759C5.02633 19.3304 4.99622 19.4433 5.03837 19.4908C5.3635 19.8237 5.44178 19.9425 5.42371 20.0139C5.29727 20.5012 5.01428 21.7493 4.94805 21.9038C4.92999 21.9454 4.6169 21.6483 4.51454 21.4997C4.35799 21.2798 4.11113 21.042 4.11113 20.9588C4.24962 20.311 4.4182 19.5622 4.6169 18.9857C5.31533 16.8996 6.51351 14.6709 7.89232 12.9473C7.91641 12.9176 7.94049 12.8879 7.95253 12.8641L7.52504 12.5432L7.51902 12.5372L7.18787 12.2935C5.8512 13.9755 4.5025 16.0675 3.76191 18.0704C3.61139 18.4686 3.65354 18.4151 3.61139 18.5162C3.74385 18.641 4.25564 19.164 4.22553 19.2472C3.99071 19.9366 3.71977 20.8637 3.49097 21.7196C3.46688 21.8147 3.3284 21.6839 3.22605 21.5829C3.04542 21.4046 2.48546 20.6498 2.51557 20.4953C2.67814 19.6691 2.81059 18.9738 3.0996 18.1893C3.87631 16.0616 5.27319 13.708 6.74833 11.9548L6.44126 11.723C6.43524 11.7171 6.41116 11.6992 6.40513 11.6992C5.99571 12.2103 5.18287 13.4049 4.91795 13.8329C2.6962 17.4285 1.26922 21.5829 1.13676 25.7788C1.08257 27.437 0.962147 29.9867 1.95561 33.7131C2.85876 37.0948 4.21349 39.7515 6.07398 42.2298L11.8903 38.016C10.8125 36.6015 10.1562 35.4248 9.64443 34.1588C9.18082 32.994 8.08499 30.165 8.33186 25.8026ZM7.59127 23.4134C7.82609 23.354 8.10306 23.1935 8.2295 23.1162C8.10306 23.556 8.0308 24.4891 8.01876 24.5783C7.89232 24.7031 6.50147 25.553 6.48341 25.5054C6.4232 25.3509 6.5677 24.299 6.73027 23.7106C7.06745 23.5798 7.11561 23.5323 7.59127 23.4134ZM7.87426 29.2319C7.60934 29.2972 6.9109 29.4577 6.67608 29.529C6.66404 29.4577 6.64597 29.321 6.63393 29.1011C6.80252 28.9704 7.32033 28.691 7.50096 28.5781C7.60331 28.5127 7.75986 28.4176 7.89834 28.3166C7.86222 28.5187 7.86824 28.6791 7.86824 28.7683C7.86824 28.9763 7.8562 29.0773 7.87426 29.2319ZM7.83211 27.1696C7.84415 27.2944 7.83211 27.6034 7.85018 27.7104C7.51902 27.9362 6.89886 28.3107 6.5677 28.5365C6.5677 28.4355 6.56168 28.3285 6.5677 28.1502C6.57974 27.538 6.50749 27.0745 6.52555 26.4564C6.62791 26.3791 6.71823 26.3256 6.77241 26.2899C7.18184 25.9987 7.36849 25.8383 7.89834 25.4222C7.78996 26.2305 7.77792 26.5931 7.83211 27.1696ZM6.2787 29.529C6.14021 29.529 5.60434 29.529 5.11062 29.5706C5.11664 29.2913 5.11062 28.9763 5.11062 28.8099C5.11062 28.5603 5.01428 28.5008 5.18889 28.6019C5.37554 28.7089 6.05592 29.0773 6.24257 29.1843C6.25461 29.3388 6.26063 29.321 6.2787 29.529ZM5.17083 22.6883C5.51403 23.033 6.20042 23.4788 6.17031 23.5679C6.09806 23.8235 6.01979 25.5352 6.04387 25.66C5.73078 25.5768 5.2491 25.3034 5.01428 25.1607C4.97214 25.137 5.05041 24.394 5.05041 23.9542C5.05643 23.5204 5.1347 22.6527 5.17083 22.6883ZM5.00826 26.0938C5.68261 26.3613 5.81508 26.4148 6.09204 26.599C6.07398 26.8011 6.16429 28.2809 6.17031 28.5365C5.72476 28.3582 5.52607 28.174 5.05643 27.9303C4.98418 27.544 4.94203 26.5158 5.00826 26.0938ZM3.56924 23.9186C3.63547 23.0806 3.70773 22.3674 3.94857 21.5829C4.32789 21.9989 4.71323 22.3614 4.70119 22.4803C4.63496 23.2173 4.52056 24.2514 4.46637 24.9705C4.18338 24.7506 3.84019 24.5307 3.5572 24.3168C3.50903 24.2752 3.5572 24.0493 3.56924 23.9186ZM4.70721 29.6657C4.51454 29.6717 4.47842 29.6776 4.20145 29.7133C3.92448 29.7489 3.8161 29.7846 3.65354 29.8678C3.59333 29.4637 3.56322 28.5603 3.51505 28.1502C3.49097 27.9362 3.48495 27.8649 3.7017 27.9897C3.95459 28.1383 4.3881 28.3463 4.64098 28.4949C4.62894 28.8693 4.67109 29.4577 4.70721 29.6657ZM3.47893 27.3062C3.45484 26.7595 3.4127 26.2008 3.43678 25.6897C3.4428 25.6065 3.43678 25.2796 3.48495 25.0775C3.64752 25.1904 3.82213 25.3212 3.88836 25.3687C4.17736 25.5649 4.29779 25.7432 4.5025 25.8917C4.5025 26.0463 4.5326 27.3062 4.53862 27.3657C4.58077 27.7223 4.57475 27.7698 4.59281 27.8233C4.51454 27.7579 3.88836 27.4192 3.47893 27.3062ZM2.0098 24.0256C2.07001 23.2827 2.13022 22.6705 2.36504 21.8444C2.38913 21.7552 2.43729 21.5294 2.47944 21.5175C2.55771 21.6542 2.58782 21.7612 2.69018 21.886C2.96714 22.2307 3.08154 22.3912 3.28023 22.6883C3.2983 22.718 3.28024 22.7656 3.25615 22.9023C3.16584 23.3718 3.11165 24.1088 3.07552 24.5842C3.0695 24.6912 3.01531 24.8814 3.01531 24.9943C2.93102 24.9705 2.72028 24.822 2.64201 24.7506C2.48546 24.608 2.43127 24.5605 2.25666 24.4356C1.99776 24.2574 1.99174 24.2752 2.0098 24.0256ZM1.79907 25.8383C1.82315 25.6065 1.82315 25.5114 1.8653 25.1251C2.21452 25.4044 2.7263 25.7432 2.89489 25.9215C2.90693 26.6287 2.94908 26.8843 3.00327 27.6628C2.57578 27.4608 2.25666 27.3479 1.84724 27.0329C1.79907 26.7298 1.7509 26.3494 1.79907 25.8383ZM3.04542 28.4414C3.16584 28.5008 3.13573 28.5187 3.13573 28.6257C3.14175 28.8872 3.20196 29.7252 3.214 29.9807C2.98521 30.0164 2.8407 30.0699 2.49148 30.1115C1.96766 30.165 2.10012 30.2719 2.03991 29.8678C1.93755 29.1665 1.84724 28.6019 1.84724 27.8233C2.33494 27.9541 2.66007 28.2572 3.04542 28.4414ZM9.42768 38.7886C8.53657 39.4483 7.78997 39.9416 6.9109 40.5716C6.80854 40.6429 6.29074 41.0233 6.25461 40.9936C5.9355 40.7499 5.69465 40.4409 5.38758 39.9714C5.22502 39.7217 4.99622 39.3592 4.94805 39.2701C4.93601 39.2522 5.48392 38.86 5.52005 38.8302C5.9355 38.5034 6.17031 38.3964 6.12215 38.3132C5.98969 38.0873 5.58026 36.9878 5.39361 36.9878C5.16481 37.0354 4.93601 37.0651 4.55669 37.1661C4.17134 37.2672 4.13522 37.3207 4.11715 37.2791C3.91846 36.8155 3.40668 35.5198 3.25615 35.0325C3.24411 34.9968 3.4428 34.872 3.79202 34.7116C4.05694 34.5868 4.27972 34.4144 4.24962 34.3253C4.09307 33.8201 3.91846 33.2852 3.75589 32.8157C3.66558 32.5482 3.61139 32.6195 3.32238 32.6314C3.20196 32.6374 2.74437 32.6493 2.62395 32.673C2.55169 32.6849 2.05797 30.789 2.13624 30.7771C2.59384 30.7296 3.22604 30.6761 4.09307 30.5037C4.77946 30.367 5.26115 30.2185 5.94754 30.1115C5.9656 30.1055 5.95958 30.1471 6.01979 30.5037C6.35697 32.3699 6.57372 32.9702 7.35043 34.878C7.73578 35.8289 8.6028 37.5346 9.15673 38.4083C9.27715 38.5747 9.45778 38.7649 9.42768 38.7886ZM10.5958 37.9923C10.3128 38.2359 10.3368 38.1943 10.2104 38.3072C9.4337 37.4514 8.55463 35.9834 7.89834 34.2539C7.26614 32.5898 6.75435 30.8484 6.75435 29.9629C6.75435 29.9094 6.96509 29.9272 7.89834 29.7727C7.94049 30.2482 8.27767 32.3996 8.8316 33.725C9.33134 34.9196 10.2526 36.5421 11.0293 37.5881C11.0293 37.5822 11.0714 37.5762 10.5958 37.9923Z" fill="#1C9BD7"/>
<path d="M26.8252 44.8502C23.1645 44.9334 18.9016 43.2098 16.0055 41.1059C12.6277 38.6514 10.4722 35.3053 9.46065 31.2758C9.08735 29.784 8.90672 28.2685 8.93683 26.7292C9.26798 26.6162 9.60516 26.7054 9.94836 26.6816C10.2735 26.6578 10.6046 26.6994 10.9358 26.7232C11.2971 26.747 11.6643 26.7767 12.0256 26.8064C12.6397 26.854 13.2599 26.8659 13.8801 26.8242C15.2649 26.7351 18.7872 26.4261 19.5759 26.4914C20.3647 26.5627 21.1294 26.6816 21.9121 26.7945C23.2307 26.9847 26.2111 27.27 26.3676 27.2759C27.5899 27.3354 28.8061 27.3473 30.0224 27.1987C30.3836 27.1571 32.5873 26.9609 33.3279 26.8837C34.0625 26.8064 35.2486 26.7232 35.9952 26.7292C36.9526 26.7351 39.7523 27.0501 40.7097 27.0501C41.0769 27.0501 41.9801 27.0382 42.3534 27.0323C42.5581 27.0263 44.1597 26.7351 44.6113 26.6519C44.6113 26.7292 44.6353 26.7648 44.6414 27.0144C44.6835 28.6369 44.4607 30.2238 44.0212 31.7809C43.1241 34.9606 41.4623 37.8371 39.0117 40.0777C37.368 41.5695 33.4182 44.7016 26.8252 44.8502Z" fill="#1FA454"/>
<path d="M20.3709 39.0916C20.5997 39.6206 21.0031 39.8583 21.5089 39.989C21.8762 40.0841 22.0448 40.5358 21.8942 40.934C21.7437 41.3203 21.4186 41.1539 21.1777 41.0886C20.8586 41.0053 20.5877 40.8152 20.389 40.5477C19.9916 40.0188 19.5942 39.4898 19.2089 38.949C18.9319 38.5627 18.9921 38.3012 19.4015 38.0634C19.6604 37.9148 19.5521 37.7663 19.4316 37.6177C19.2089 37.3443 19.0945 37.0352 19.0884 36.6846C19.0824 36.3339 19.2209 36.1438 19.6123 36.1378C20.106 36.1378 20.5576 36.2983 21.0272 36.3934C21.3102 36.4528 21.4788 36.3993 21.4306 36.0546C21.2861 35.1156 21.4186 34.1884 21.5932 33.2672C21.6474 32.9879 21.6353 32.7026 21.6654 32.2985C21.3283 32.6551 21.0332 32.8631 21.0694 33.2969C21.0934 33.6179 20.8767 33.8259 20.5756 33.8675C20.2746 33.9091 19.9555 33.5763 19.9615 33.2672C19.9735 32.3401 20.0879 31.4307 20.3408 30.5392C20.5576 29.7785 21.1115 29.2555 21.7618 28.8573C22.1291 28.6315 22.5927 28.7206 23.0021 28.7741C23.5621 28.8514 24.11 28.8751 24.6639 28.7682C24.8686 28.7266 25.1215 28.6909 25.254 28.9227C25.3684 29.1247 25.2359 29.2971 25.1094 29.4635C24.9228 29.7072 24.977 29.8558 25.3081 29.8795C25.4767 29.8914 25.6513 29.9033 25.8139 29.9449C25.9584 29.9806 26.0969 30.0876 25.9825 30.2421C25.6875 30.6522 26.0608 30.7413 26.2956 30.8661C26.4401 30.9434 26.6267 30.9434 26.7893 30.9791C27.2409 31.0741 27.3673 31.3356 27.0964 31.6982C26.8917 31.9775 26.976 32.0607 27.265 32.1202C27.3974 32.1499 27.5359 32.1974 27.6563 32.2569C27.8249 32.3341 27.9152 32.4708 27.9213 32.661C27.9273 32.869 27.7647 32.9166 27.6202 32.9582C27.0301 33.1365 26.8254 33.6773 26.5846 34.1349C26.4341 34.4143 26.7893 34.4499 26.988 34.4796C27.4877 34.5391 27.9754 34.3905 28.4692 34.3548C29.2037 34.3013 29.9503 34.1528 30.6427 34.6044C30.9077 34.7768 31.859 34.2835 31.9132 33.9804C31.9553 33.7486 31.7807 33.6179 31.6121 33.5049C31.293 33.291 30.9799 33.0592 30.703 32.7858C29.9443 32.0488 29.9804 31.0682 30.8234 30.3966C31.4074 29.933 32.0938 29.6478 32.8344 29.517C33.1655 29.4576 33.3101 29.1961 33.4847 28.9702C33.575 28.8514 33.6111 28.6552 33.8158 28.7325C33.9844 28.7979 33.9904 28.9762 33.9724 29.1307C33.9543 29.3149 33.9122 29.4932 33.8881 29.6715C33.876 29.7845 33.9001 29.8974 34.0145 29.9449C34.1409 29.9984 34.2132 29.9211 34.2794 29.8201C34.3336 29.7429 34.3878 29.6715 34.442 29.5943C34.4902 29.523 34.5504 29.4754 34.6347 29.4992C34.731 29.5229 34.725 29.6121 34.731 29.6834C34.737 29.7904 34.737 29.8974 34.7491 30.0044C34.8033 30.569 34.8273 30.5868 35.3391 30.3312C35.5198 30.2421 35.6101 30.2896 35.6101 30.4739C35.6221 30.9553 35.7726 31.2465 36.3386 31.0623C36.441 31.0325 36.5674 31.0504 36.5975 31.193C36.6216 31.3059 36.5915 31.4189 36.4771 31.4664C36.17 31.5972 36.158 31.8468 36.1158 32.138C35.9894 32.97 35.4415 33.2197 34.6166 32.8274C34.3276 32.6907 34.0928 32.4352 33.8098 32.2806C33.4004 32.0607 33.1957 32.1974 33.2197 32.6551C33.2498 33.2613 33.5087 33.814 33.6231 34.3964C33.8218 35.389 33.3582 35.9476 32.3527 35.9357C31.5399 35.9298 31.5158 35.9298 31.4315 36.7381C31.3653 37.3621 30.8836 37.6771 30.5283 38.0813C30.0888 38.5864 30.0527 38.6815 30.4681 39.2164C30.6729 39.4839 30.6909 39.7097 30.4441 39.9474C29.9804 40.3813 29.6493 40.9103 29.3543 41.4689C29.2459 41.671 29.288 41.8493 29.3603 42.0395C29.4867 42.3664 29.4385 42.61 29.0291 42.6754C28.9268 42.6932 28.8244 42.7586 28.7461 42.818C28.6016 42.9369 28.4511 43.0023 28.2825 42.8775C28.132 42.7586 28.1561 42.5981 28.1561 42.4198C28.1741 41.7423 28.4692 41.1836 28.8244 40.6369C28.9087 40.5121 28.987 40.3694 29.0231 40.2208C29.0592 40.0663 29.1134 39.8642 28.9569 39.7454C28.7883 39.6206 28.6739 39.781 28.5595 39.8761C28.3548 40.0425 28.1139 40.0009 27.8851 39.989C27.2891 39.9593 26.7411 40.0366 26.2956 40.4883C26.1691 40.619 25.9945 40.7141 25.8019 40.726C25.6212 40.7379 25.3804 40.8092 25.3202 40.5715C25.266 40.3516 25.1937 40.0782 25.5068 39.9356C26.0909 39.6681 26.5424 39.1213 27.265 39.1629C27.2951 39.1629 27.3312 39.157 27.3553 39.1392C27.4877 39.05 27.4877 38.8955 27.4034 38.8182C27.1506 38.5745 27.5239 38.004 27.0241 37.9683C26.0367 37.897 25.0793 37.7603 24.1943 37.3086C24.0016 37.2076 23.8932 37.2492 23.7788 37.4275C23.3513 38.0991 22.7492 38.4735 21.9243 38.4557C21.6654 38.4497 21.551 38.5567 21.5811 38.8182C21.5932 38.9371 21.5932 39.0619 21.5811 39.1867C21.539 39.6265 21.3824 39.6978 21.0212 39.4601C20.8044 39.3353 20.6419 39.1332 20.3709 39.0916Z" fill="#F3EA27"/>
<path d="M35.1969 40.0235C35.7328 39.4351 36.2446 38.8229 36.7744 38.2108C36.5456 38.1216 36.4252 38.2464 36.2928 38.3059C35.6003 38.6149 34.9019 38.9121 34.2215 39.2508C33.8783 39.4232 33.6977 39.3459 33.5171 39.0309C33.2702 38.603 32.9872 38.1929 32.644 37.6699C32.5296 38.2286 32.4032 38.6327 32.361 39.0606C32.3309 39.3756 32.2406 39.6015 31.8492 39.3103C31.6205 39.1379 31.3796 38.9358 31.0184 38.9002C31.0665 39.3162 31.0966 39.6966 31.1568 40.071C31.211 40.4335 31.1508 40.7188 30.8136 40.9387C30.4283 41.1943 30.067 41.4914 29.6998 41.7767C29.5191 41.9134 29.5251 42.0026 29.772 42.062C30.067 42.1333 30.3621 42.1095 30.6511 42.1452C30.9882 42.1809 31.1508 42.3116 31.0364 42.6801C30.9341 42.9951 30.9702 43.3279 30.9943 43.7142C31.2291 43.5775 31.4218 43.5003 31.5602 43.3695C32.1985 42.7692 32.8006 42.8643 33.3967 43.423C33.499 43.3873 33.6014 43.3517 33.7097 43.316C33.7278 43.0545 33.7639 42.793 33.7519 42.5375C33.7338 42.2106 33.8663 42.1155 34.1854 42.1214C34.6069 42.1274 35.0344 42.1749 35.516 42.0798C35.3535 41.8659 35.2331 41.7054 35.1126 41.5509C34.5166 40.7604 34.5226 40.7664 35.1969 40.0235ZM32.638 42.1214C32.2948 42.1095 31.9938 41.7708 32.0058 41.4082C32.0178 41.0041 32.3309 40.7188 32.7223 40.7426C33.0956 40.7664 33.3966 41.0814 33.3786 41.438C33.3665 41.8005 32.9993 42.1333 32.638 42.1214Z" fill="#F3EA27"/>
<path d="M36.0636 23.6855C35.1123 23.7093 33.6071 23.9529 32.6497 24.0837C28.5856 24.6424 26.141 24.3452 22.6609 23.9708C20.7703 23.7687 18.9459 23.5785 17.0373 23.7627C15.6284 23.8994 14.2194 24.1134 12.8045 24.1253C11.6123 24.1312 10.4383 23.9054 9.24609 23.846C9.24609 23.6855 9.29426 23.5547 9.33641 23.3764C9.56521 22.3245 9.89636 21.3082 10.3178 20.3156C11.0283 18.6396 12.0037 17.1301 13.1838 15.7274C15.7307 12.7023 18.97 10.8005 22.8114 9.91493C26.6287 9.03532 30.3497 9.39192 33.9563 10.9372C36.3466 11.9594 38.4118 13.4393 40.1338 15.353C42.2352 17.6887 43.626 20.3989 44.2823 23.4656C44.3726 23.8816 44.3546 23.7627 44.3546 23.846C42.9757 24.0837 42.2412 24.1669 39.4775 23.9232C38.3215 23.8222 37.2136 23.6498 36.0636 23.6855Z" fill="#1C9BD7"/>
<path d="M41.9262 21.4457C40.9387 21.2793 40.0596 21.095 39.2227 20.679C38.0005 20.0668 37.0552 20.2392 36.1641 21.2436C35.7486 21.7131 35.6884 21.6596 35.1887 21.2436C34.8575 20.9643 34.5143 20.7028 34.1892 20.4115C33.9544 20.1976 33.7195 20.1738 33.4245 20.2808C32.2143 20.7028 31.0041 21.1485 29.7396 21.4041C29.5289 21.4457 28.8245 21.4457 29.0713 21.2852C29.276 21.1485 29.3724 21.0712 29.5289 20.9583C31.4376 19.5379 33.3643 18.1293 35.273 16.7029C35.568 16.483 35.7727 16.4593 36.0798 16.691C38.0607 18.1769 40.0596 19.633 42.0526 21.1069C42.1429 21.1723 42.2393 21.2079 42.4018 21.2852C42.5463 21.3506 42.167 21.4873 41.9262 21.4457Z" fill="#F3EA27"/>
<path d="M24.606 21.2777C24.5277 21.2004 24.4314 21.1588 24.329 21.0815C22.324 19.6076 20.313 18.1396 18.3141 16.6478C18.0491 16.4517 17.8805 16.4517 17.6277 16.6419C16.2428 17.676 14.8399 18.6983 13.4491 19.7265C12.841 20.1781 12.2268 20.6239 11.6247 21.0815C11.5284 21.1588 11.3297 21.2539 11.2875 21.2777C11.1551 21.343 11.6608 21.456 11.7933 21.4322C12.0823 21.3906 12.3713 21.3252 12.6603 21.2539C13.6658 20.9983 14.6473 20.6596 15.6166 20.297C15.9839 20.1603 16.2609 20.2019 16.5439 20.4575C16.9473 20.82 17.3868 21.135 17.7902 21.4976C17.9408 21.6283 18.025 21.6224 18.1696 21.4976C18.591 21.135 19.0366 20.8022 19.446 20.4278C19.6868 20.2079 19.9217 20.1782 20.2107 20.2792C20.885 20.505 21.5594 20.7249 22.2397 20.9329C22.89 21.135 23.5343 21.343 24.1906 21.45C24.5277 21.5094 24.7084 21.3727 24.606 21.2777ZM19.723 19.4828C19.3075 19.3223 18.9824 19.3461 18.6753 19.6611C18.6452 19.6967 18.6031 19.7205 18.5669 19.7502C17.8023 20.3564 18.0311 20.297 17.3326 19.7205C16.9413 19.3996 16.6161 19.2926 16.1224 19.5066C15.707 19.6908 15.2494 19.881 14.6533 19.7621C15.3036 19.3045 15.8876 18.8885 16.4776 18.4784C16.6643 18.3476 16.863 18.2228 17.0496 18.0861C17.9648 17.4205 17.9648 17.4205 18.9041 18.0861C19.6688 18.6329 20.4395 19.1737 21.2884 19.774C20.6562 19.8869 20.1866 19.6611 19.723 19.4828Z" fill="#F3EA27"/>
<path d="M26.5383 11.6038C24.6477 11.6335 22.8896 13.2976 22.9799 15.14C23.0702 17.0835 24.5213 18.5336 26.5022 18.605C28.6216 18.605 30.1328 17.0775 30.1208 14.9439C30.1027 13.149 28.3506 11.58 26.5383 11.6038ZM25.3702 12.8816C26.153 12.5072 26.9297 12.4418 27.7064 12.8935C27.7606 12.941 27.7847 13.0005 27.7786 13.0718C27.5619 13.5829 27.0682 13.8266 26.6828 14.1772C26.5383 14.2069 26.4962 14.0643 26.4058 14.0108C25.8941 13.9157 25.6231 13.5472 25.3883 13.1312C25.3522 13.0539 25.316 12.9707 25.3702 12.8816ZM24.431 16.3109C24.0215 16.1266 24.0276 15.7284 23.9794 15.3837C23.9011 14.7597 24.0817 14.1832 24.431 13.6542C24.4671 13.678 24.4972 13.7077 24.5153 13.7493C24.6838 14.0881 25.0451 14.2426 25.2619 14.5398C25.3702 14.6883 25.4846 14.825 25.5629 14.9914C25.7496 15.1519 25.5268 15.1816 25.4726 15.2648C25.31 15.7938 24.9126 16.091 24.431 16.3109ZM27.2247 17.5589C26.6587 17.7313 26.1289 17.654 25.587 17.4817C25.2679 17.3806 25.2197 17.2558 25.4786 17.03C25.5208 16.9943 25.5388 16.923 25.5689 16.8695C25.7435 16.5367 25.9723 16.2633 26.3336 16.1147C26.4901 16.2336 26.5443 15.9483 26.6949 16.0196C26.7611 16.3525 27.1344 16.3762 27.297 16.614C27.3391 16.6793 27.4053 16.7269 27.4535 16.7863C27.9231 17.3331 27.9051 17.3569 27.2247 17.5589ZM28.8263 16.299C28.736 16.3525 28.6577 16.3168 28.5734 16.2871C28.158 16.0553 27.7847 15.7938 27.6943 15.2886C27.4294 15.1638 27.4655 15.039 27.6943 14.9142C27.9653 14.5635 28.2423 14.2307 28.6216 13.9751C28.7962 13.8563 28.8444 13.8801 28.9106 14.0346C29.2357 14.8013 29.32 15.562 28.8263 16.299Z" fill="#F3EA27"/>
<path d="M28.6281 16.2268C28.5679 16.2803 28.5378 16.3457 28.5258 16.4111C28.2127 16.0604 27.8875 15.7217 27.5082 15.4423C27.5805 15.3888 27.6768 15.3591 27.731 15.27C27.6648 15.157 27.731 15.0263 27.6949 14.9074C27.4119 14.8955 27.3276 14.8242 27.5744 14.5984C27.8936 14.3072 28.1946 13.9922 28.4957 13.6891C28.5438 13.6415 28.6402 13.5999 28.5679 13.5108C28.4776 13.4038 28.4174 13.481 28.3451 13.5464C28.0441 13.8139 27.725 14.0635 27.4841 14.3844C27.3998 14.4973 27.2854 14.6459 27.153 14.5092C27.0386 14.3904 27.2072 14.3012 27.2975 14.2299C27.6166 13.9803 27.8635 13.6593 28.1284 13.3622C28.2608 13.2195 28.2789 13.1423 28.0983 13.0591C28.02 12.9402 27.9116 12.8927 27.7852 12.8927C27.7491 12.9818 27.7491 12.9878 27.7069 13.0769C27.7792 13.1423 27.8514 13.1423 27.9237 13.1066C27.6587 13.4216 27.3276 13.6772 27.0566 13.9862C26.9723 14.0873 26.8579 14.1229 26.7255 14.0873C26.6111 14.0635 26.5208 13.9506 26.3883 13.9803C26.304 14.0754 26.2077 14.1586 26.0933 14.2121C25.9367 13.7782 25.6718 13.5167 25.2564 13.3384C25.2804 13.2552 25.1962 13.1779 25.142 13.1126C25.1359 13.1126 25.1359 13.1066 25.1299 13.1066C25.2323 13.172 25.3105 13.2671 25.4189 13.1779C25.3828 13.0769 25.4069 12.9878 25.3647 12.8867C25.2323 12.8927 24.9734 13.0353 24.9312 13.1007C24.7807 13.3087 24.9674 13.3325 25.0938 13.4989C25.0938 13.4989 25.4972 13.9803 25.8223 14.218L25.9849 14.3785C26.0632 14.5389 25.9066 14.6994 25.7441 14.5449C25.4972 14.218 25.0878 13.8733 24.7626 13.5405C24.588 13.3622 24.5037 13.4989 24.4315 13.6534C24.4134 13.6712 24.4134 13.6891 24.4315 13.7069C24.7145 13.9327 24.9794 14.1824 25.2443 14.432C25.3407 14.5271 25.4249 14.6816 25.5935 14.6459C25.5695 14.7529 25.5514 14.8658 25.5092 14.9669C25.4972 15.0857 25.4069 15.1868 25.449 15.3175C25.5935 15.5315 25.3828 15.6087 25.2865 15.7276C25.0817 15.9832 24.7325 16.1317 24.6783 16.5002C24.5639 16.5478 24.4736 16.5181 24.4375 16.3754C24.2569 16.5537 24.4315 16.6548 24.5399 16.732C24.6783 16.8271 24.7566 16.6904 24.8228 16.5894C25.1901 16.3992 25.449 16.0961 25.6959 15.7811C25.7681 15.6919 25.8585 15.6028 25.9668 15.6979C26.0933 15.8108 25.9548 15.8821 25.8825 15.9534C25.6839 16.1436 25.4671 16.3219 25.2744 16.524C25.1299 16.6845 24.8228 16.9579 24.8951 17.0114C25.1179 17.1659 25.2323 16.7974 25.4551 16.7617C25.6778 16.7023 25.8103 16.5359 25.9488 16.3754C26.0391 16.2744 26.1053 16.1377 26.2799 16.2031C26.4666 16.2922 26.7195 16.3457 26.7195 16.1496C26.7195 15.9891 26.7556 15.9891 26.8218 15.9832C26.9844 15.9653 27.0747 16.1199 27.1831 16.2328C27.436 16.4943 27.6527 16.8093 28.1103 16.9519C27.9297 16.5121 27.6286 16.2803 27.3396 16.0426C27.2433 15.9653 27.1169 15.9059 27.1108 15.793C27.1048 15.6979 27.2072 15.6325 27.2915 15.6801C27.3818 15.7217 27.442 15.8168 27.5142 15.8881C27.7671 16.1496 28.032 16.3992 28.297 16.6429C28.4294 16.7677 28.58 16.8747 28.6582 16.5894C28.7666 16.524 28.8389 16.4349 28.8268 16.2982C28.7365 16.2625 28.7184 16.2566 28.6281 16.2268Z" fill="#1FA454"/>
<path d="M24.6065 16.2284C24.9978 15.9194 25.1604 15.6519 25.4735 15.2656C25.7384 15.3488 25.7986 15.438 25.5518 15.6519C25.2507 15.9075 24.9918 16.2047 24.7209 16.484C24.6847 16.5613 24.6245 16.6207 24.5402 16.585C24.4559 16.5494 24.3716 16.4899 24.4379 16.377C24.4318 16.3532 24.6065 16.2284 24.6065 16.2284Z" fill="#E1E442"/>
<path d="M26.2328 16.227C26.0281 16.4291 25.9137 16.536 25.7089 16.7381C24.8961 17.6653 25.0948 17.0293 25.5705 16.6074C25.7029 16.4588 25.8715 16.334 25.9739 16.1438C26.0521 15.9952 26.1545 15.9833 26.2388 16.0606C26.293 16.12 26.2388 16.221 26.2328 16.227Z" fill="#EBE837"/>
<path d="M24.504 13.869C24.4618 13.7918 24.5401 13.6967 24.6244 13.7323C24.7147 13.768 24.7869 13.8334 24.8592 13.9166C25.094 14.1781 25.3409 14.4396 25.654 14.6238C25.7744 14.7843 25.5817 15.022 25.4191 14.8616C25.082 14.4752 24.7508 14.3385 24.504 13.869Z" fill="#DCE244"/>
<path d="M25.0859 13.0707C25.2545 12.934 25.3087 13.1064 25.4171 13.1777C25.7422 13.4987 25.977 13.7007 26.3082 13.9801C26.4708 14.2178 26.1456 14.301 26.0674 14.2178C25.8566 14.0038 25.6098 13.5997 25.2545 13.3382C25.1582 13.2431 25.0137 13.1777 25.0859 13.0707Z" fill="#DAE246"/>
<path d="M27.711 13.083C27.7772 13.0176 27.8555 13.0176 27.9759 13.0771C28.0361 13.2435 27.9217 13.3148 27.8194 13.4099C27.5725 13.6357 27.3196 13.8616 27.1089 14.1231C26.9644 14.3014 26.9042 14.2717 26.8018 14.2182C26.6393 14.1409 26.8982 13.8735 27.0427 13.7605C27.2895 13.5585 27.5243 13.3445 27.711 13.083Z" fill="#E1E43E"/>
<path d="M28.6444 16.2756C28.6504 16.3291 28.6504 16.3767 28.6324 16.4242C28.6083 16.5074 28.4939 16.5312 28.4397 16.4658C28.1326 16.1271 27.7473 15.8537 27.4763 15.4792C27.4282 15.4139 27.4583 15.3188 27.5365 15.3009C27.5666 15.295 27.6028 15.2891 27.6329 15.2891C27.669 15.2891 27.7051 15.3069 27.7232 15.3366C27.97 15.6635 28.2289 15.9785 28.5902 16.1924C28.6203 16.2103 28.6444 16.24 28.6444 16.2756Z" fill="#DEE342"/>
<path d="M50.8487 21.9625C50.2827 23.1274 49.7529 24.316 49.1809 25.5403C48.934 25.1362 48.7534 24.738 48.4584 24.4052C47.9345 23.8108 47.3746 23.2641 46.6822 22.8659C46.2306 22.6044 45.9476 22.2062 45.6767 21.7961C45.478 21.4989 45.4659 21.1839 45.7429 20.9105C46.1704 20.4826 46.6099 20.0547 47.2843 20.0666C47.5131 20.0725 47.8141 20.1082 47.8262 20.3875C47.8442 20.6847 47.6094 20.8808 47.3204 20.9819C47.2602 21.0056 47.0495 21.0829 47.0314 21.0413C46.7906 20.4826 46.8508 20.6371 46.7906 20.8036C46.628 21.2018 46.4052 21.5405 46.1704 21.7485C46.628 21.7664 46.8688 21.8436 47.2783 21.9268C47.4529 21.9625 47.3565 22.0754 47.2662 21.6594C47.218 21.4335 47.7057 21.1899 48.0008 21.279C48.3078 21.3741 48.4945 21.6059 48.5005 21.9209C48.5126 22.3013 48.3982 22.4142 48.0851 22.5687C47.9225 22.646 47.5191 22.5687 47.3565 22.5687C47.5974 22.9669 47.9586 22.955 48.2476 22.8896C48.4283 22.848 48.5728 22.7292 48.5728 22.7292C48.5728 22.7292 48.3319 23.371 49.1207 23.9654C49.2772 23.4959 49.7288 23.1274 49.223 22.6044C49.795 22.6281 50.1141 22.4855 50.2767 21.7664C50.1141 21.9268 49.9877 21.9803 49.8552 22.0279C49.4639 22.1705 49.0846 22.0576 48.934 21.7426C48.7835 21.4335 48.94 21.0175 49.2652 20.8333C49.6505 20.6134 49.8733 20.7203 49.9395 21.1899C50.2767 20.8095 50.2767 20.4113 50.7644 20.1676C50.4212 20.0844 49.795 19.7991 49.5482 19.6862C49.5361 19.6803 49.5241 19.6743 49.512 19.6684C49.5421 19.6981 49.5963 19.7754 49.6445 19.9477C49.7348 20.2687 49.3314 20.3697 49.0846 20.34C48.8196 20.3103 48.6751 20.0904 48.7534 19.7873C48.8919 19.2702 49.6144 18.8363 50.2406 18.9017C50.8427 18.9611 51.228 19.395 51.234 20.025C51.2521 20.6906 51.1558 21.3384 50.8487 21.9625ZM48.2235 20.0072C48.3139 19.5436 48.3379 19.3534 48.6631 19.0325C48.7353 18.9611 49.0665 18.7115 49.0665 18.7115C49.0665 18.7115 48.1754 18.7888 47.483 18.0399C47.7419 18.6877 47.4589 19.1454 47.0254 19.609C47.507 19.5971 47.9285 19.5436 48.2235 20.0072ZM49.3675 34.895C50.373 34.7405 50.8848 33.962 50.6681 32.8862C50.361 31.335 49.5301 29.974 49.0063 28.3991C48.7775 28.8983 48.5366 29.2905 48.2175 29.6234C47.5372 30.3366 46.8568 31.0557 46.1885 31.7867C45.8392 32.173 45.4238 32.5177 45.2913 33.0526C45.2311 33.3082 45.2251 33.5281 45.4418 33.7242C45.8754 34.1105 46.7424 34.1819 47.2301 33.8847C47.4468 33.7539 47.4529 33.6232 47.3324 33.433C47.1157 33.0883 46.5437 33.0705 46.5437 33.7064C46.4654 33.4687 46.3089 33.1774 46.1403 32.9873C46.0439 32.8743 45.9777 32.8268 45.8994 32.7495C46.1403 32.6723 46.4835 32.4999 46.646 32.2978C46.7183 32.2087 47.0073 32.1017 47.1217 32.1849C47.0133 32.2919 46.923 32.3573 46.8809 32.4226C46.8146 32.5177 46.917 32.6425 46.9953 32.702C47.2 32.8684 47.4649 32.8684 47.6576 32.7674C47.9105 32.6247 48.079 32.3751 48.073 32.0482C48.073 31.7808 47.9646 31.6203 47.778 31.543C47.6034 31.4717 47.3746 31.4658 47.1578 31.5252C47.3987 31.0379 47.9406 30.9844 48.2657 31.3053C48.2657 30.9844 48.4283 30.4257 48.8798 30.1226C49.0003 30.5802 49.1628 30.8239 48.8377 31.4658C49.0003 31.3885 48.9581 31.3885 49.2411 31.3885C49.4037 31.3885 49.6144 31.4539 49.7288 31.7095C49.8191 31.9056 49.8071 31.9472 49.8071 32.1909C49.6445 32.0304 49.2531 31.9353 49.0785 31.9531C48.6932 31.9888 48.5427 32.3097 48.5126 32.6425C48.4825 32.9754 48.6751 33.1656 48.9702 33.2428C49.2893 33.326 49.4819 33.3141 49.5662 33.0705C49.6084 32.9397 49.5662 32.8327 49.488 32.6723C49.5963 32.696 49.9757 33.4746 50.1382 33.7123C49.8131 33.8728 49.2712 34.2829 48.9822 34.2472C49.0845 34.1937 49.3435 33.9857 49.1568 33.7955C49.0003 33.6351 48.7414 33.6588 48.5487 33.7777C48.2717 33.9501 48.1995 34.2116 48.3741 34.4968C48.5848 34.8832 48.9641 34.9545 49.3675 34.895ZM46.5618 34.6751C46.911 34.9842 47.1277 35.317 47.1458 35.8876C47.5131 35.424 47.8984 35.2219 48.5186 35.2754C47.8442 34.8297 47.8442 34.4315 47.8924 33.7777C47.6034 34.3542 47.212 34.6811 46.5618 34.6751ZM49.2291 26.1703C49.1086 26.4913 48.7052 26.937 48.5969 27.0202C48.7715 27.1688 48.7654 27.1866 48.9762 27.4838C49.0003 27.5135 49.1026 27.7631 49.1387 27.7869C49.3374 27.46 49.6565 27.2639 49.9456 27.0083C49.6144 26.7528 49.4097 26.6042 49.2291 26.1703ZM49.7288 16.465C49.6144 16.3402 49.488 16.2213 49.3555 16.1143C48.1573 15.1574 46.64 14.9257 45.2672 14.3194C45.2251 15.621 45.0746 16.8513 44.7374 18.0578C44.6712 18.3074 44.629 18.5748 44.629 18.8304C44.629 19.187 44.6772 19.5674 45.0204 19.7635C45.6526 20.1201 46.929 19.3653 46.9471 18.6402C46.9531 18.45 46.9471 18.2361 46.6882 18.2301C46.4233 18.2242 46.1704 18.4084 46.2125 18.6224C46.3209 19.1513 46.5377 19.0206 45.7309 18.9909C45.5201 18.9849 45.3034 18.9849 45.0384 18.9849C45.2733 18.5451 45.3274 18.0756 45.761 17.7725C45.7911 18.1647 46.0199 18.2004 46.2487 18.028C46.3871 17.927 46.4955 17.8854 46.5798 17.7368C46.7303 17.4634 46.7303 17.1841 46.5557 16.982C46.3751 16.7681 46.1583 16.7027 45.9657 16.8572C45.8453 16.9523 45.6405 17.095 45.478 17.4159C45.4479 17.4753 45.4238 17.1603 45.4298 17.095C45.4599 16.8097 45.6285 16.6135 45.8754 16.4887C46.056 16.3996 46.0981 16.3164 46.0018 16.1381C45.8633 15.8885 45.9536 15.3714 45.9536 15.3714C45.9536 15.3714 46.4353 15.5794 46.5798 15.7934C46.7303 16.0133 46.8086 16.0014 46.9953 15.8469C47.3084 15.5972 47.6214 15.6507 47.9767 15.8885C47.7479 15.9954 47.5913 15.9598 47.4288 16.0489C47.2301 16.15 47.0073 16.3818 47.1157 16.6492C47.2241 16.8988 47.3625 17.1841 47.7118 17.1187C47.9887 17.0652 48.4825 17.0117 48.073 16.4531C47.9044 16.2213 48.4463 16.3818 48.5607 16.4531C48.7895 16.5957 48.9762 16.6135 49.2772 16.6789C49.1688 16.8929 49.0544 17.0593 49.0665 17.2733C49.0785 17.511 48.9822 17.6833 48.7293 17.7309C48.7233 17.6536 48.7233 17.3327 48.5065 17.3624C48.2777 17.3921 48.0369 17.4515 47.9586 17.719C47.9044 17.9151 47.9466 18.0815 48.1393 18.1945C48.6149 18.4619 49.5 18.2242 49.9516 17.7012C50.2948 17.3327 50.2285 16.9999 49.7288 16.465ZM50.4995 16.667C50.4995 16.667 49.3194 14.0045 47.5311 11.752L47.2542 11.96C47.2542 12.0907 47.3324 12.2096 47.501 12.3225C47.766 12.5008 47.9586 12.7148 48.0369 13.0357C48.1453 13.4814 48.362 13.8915 48.6209 14.2719C48.639 14.3076 48.6872 14.3729 48.6751 14.3789C48.5908 14.4324 48.1694 14.3016 47.6275 14.052C47.4769 13.9807 47.1277 13.8559 47.5432 13.6181C47.6215 13.5706 47.6094 13.4577 47.5251 13.3388C47.3625 13.4993 47.2782 13.6122 47.1157 13.6895C46.8989 13.7905 46.6581 13.8618 46.3992 13.8321C46.2125 13.8083 46.0138 13.7964 45.9295 13.6122C45.8392 13.4101 45.9175 13.2199 46.0981 13.0892C46.634 12.6969 47.0495 12.685 47.0434 12.9406C47.0374 13.107 46.917 13.3566 46.5256 13.1427C46.4052 13.0773 46.3149 13.2437 46.2968 13.3626C46.2667 13.5409 46.4172 13.5587 46.5437 13.5587C46.9049 13.5468 47.1578 13.3388 47.3084 13.0476C47.4348 12.8099 47.3144 12.5424 47.0856 12.4533C46.4775 12.2215 45.5623 13.2318 45.5623 13.2318C45.5502 13.2497 45.5382 13.2675 45.5261 13.2913C45.3274 13.6122 45.4298 13.8737 45.7911 14.0104C46.2065 14.1649 46.628 14.3076 47.0434 14.4561C47.1699 14.5156 47.2903 14.575 47.4167 14.6344C48.5366 15.1753 49.7047 15.6507 50.4092 16.7681C50.5898 17.3683 50.9029 17.9983 49.9817 18.4381C50.6681 18.3846 51.3003 18.6937 51.5231 19.4544C51.7699 20.3103 51.5652 21.0353 51.4087 21.5465C51.0594 22.6876 50.4995 23.6742 50.0901 24.7915C49.9757 25.0411 49.8974 25.2432 49.8251 25.4393C49.6144 26.0633 49.795 26.4497 50.361 26.6517C51.0354 26.8895 51.5592 26.7052 51.8 26.1466C51.9265 25.8553 51.8241 25.2372 51.6074 25.1362C51.2461 24.9698 50.9089 25.0589 50.6319 25.3264C50.5416 25.4155 50.4694 25.5819 50.5898 25.6949C50.65 25.7543 50.8487 25.7959 50.939 25.79C50.9812 25.79 50.9872 25.7068 50.9812 25.5819C50.9751 25.3977 50.9932 25.4036 51.0956 25.4868C51.2822 25.6414 51.5532 25.8197 51.5652 25.885C51.5712 25.9385 51.2822 26.1703 51.1016 26.3843C50.9089 26.6161 51.0173 26.1941 50.9571 26.1882C50.8969 26.1822 50.7704 26.1941 50.6801 26.1882C50.2888 26.1644 50.072 25.9445 50.1382 25.5582C50.1563 25.4631 50.2045 25.3026 50.2647 25.2075C50.367 25.0589 50.4573 24.9698 50.5416 24.9282C50.8066 24.8093 51.1377 24.5835 51.6977 24.7974C51.7097 24.5835 51.5893 24.5478 51.4869 24.4824C51.3725 24.4111 51.2762 24.423 51.1377 24.322C51.493 23.3116 51.7639 23.0145 52.2275 22.7708C52.0348 23.0739 52.0348 23.3057 52.0529 23.5256C52.1131 24.1021 52.3359 24.6251 52.4804 25.1659C52.5888 25.5701 52.5105 25.8969 52.3238 26.2595C52.2757 26.3546 52.1553 26.4497 52.083 26.5388C52.0529 26.5745 52.3901 26.7112 52.3841 26.7825C52.378 26.8241 52.2576 26.9608 52.1131 27.0678C52.1131 27.0678 52.2155 27.2104 52.2396 27.2936C52.36 27.674 52.4142 27.9652 52.2937 28.2921C51.9987 29.0766 51.4869 29.8017 51.7278 30.7407C51.3424 30.5802 50.9089 30.1761 50.8668 29.6174C50.8607 29.5758 50.8607 29.3619 50.9511 29.2371C51.0655 29.0766 51.2702 28.9815 51.493 28.7556C51.1377 28.9696 50.7825 29.0172 50.4152 29.0112C50.0539 28.8805 49.9937 28.5892 50.0178 28.2624C50.0419 27.9355 50.3068 27.7156 50.6139 27.6502C50.7343 27.6264 50.9149 27.6324 50.933 27.6145C50.9631 27.5789 50.8607 27.1985 51.0173 27.3709C51.1136 27.4778 51.5291 27.7334 51.493 27.7691C51.3786 27.8939 51.3364 27.9176 51.0113 28.2326C50.9992 28.2445 50.9029 28.304 50.9029 28.2861C50.9149 27.9771 50.933 27.9711 50.638 28.0781C50.4874 28.1316 50.3429 28.2921 50.4032 28.4525C50.4814 28.6546 50.638 28.7259 50.8487 28.6903C51.0835 28.6487 51.3003 28.5655 51.493 28.4288C51.7639 28.2326 51.8663 27.7156 51.7278 27.3709C51.5833 27.0143 51.2762 27.0262 50.9812 27.0618C50.4333 27.1331 49.9997 27.4362 49.6385 27.8226C49.5 27.9711 49.4338 28.1851 49.5602 28.3753C49.8071 28.7497 49.8914 29.1954 50.1081 29.5877C50.2225 30.1285 50.4453 30.6337 50.65 31.1448C50.9932 32.0126 51.3424 32.8981 50.9812 33.855C50.7283 34.5147 50.4513 35.1447 49.6385 35.2873C49.3916 35.3289 49.4398 35.4418 49.6024 35.5429C49.8613 35.7033 50.0479 35.9232 49.9817 36.2204C49.8853 36.684 49.7529 37.1535 49.4217 37.516C48.5366 38.4729 47.5492 39.3109 46.4052 39.9587C46.1222 40.1192 45.8392 40.2737 45.5562 40.4342C45.5442 40.4401 45.5261 40.452 45.5141 40.4579L45.779 40.6481C46.2366 40.4045 46.7243 40.3569 47.1458 40.7908C46.9652 40.5946 47.0976 40.1014 47.2481 39.9944C47.5372 39.7923 47.6997 39.6318 48.0249 39.5546C48.061 39.5486 48.3741 39.5308 48.4283 39.5546C48.1272 39.9944 47.7178 40.553 47.6576 41.0701C47.6395 41.2009 47.6094 41.3732 47.5191 41.4505C47.3927 41.5634 47.3264 41.6644 47.3023 41.7536L47.8442 42.1458C51.0956 37.938 52.8838 32.4464 52.7995 26.7409C52.7092 21.6237 51.0293 17.7784 50.4995 16.667ZM46.7123 40.9334C46.5015 40.8264 46.357 40.8561 46.0981 40.9037L46.9471 41.5159C46.9531 41.4861 46.9591 41.4564 46.9652 41.4326C46.9892 41.2662 46.8628 41.0107 46.7123 40.9334ZM49.5361 36.7791C49.6505 36.5057 49.7228 36.2085 49.4277 35.9827C49.0003 35.6439 47.9285 35.7152 47.5492 36.0956C47.4408 36.2026 47.3625 36.3155 47.4348 36.4581C47.5191 36.6245 47.6636 36.7612 47.8442 36.7612C47.9887 36.7612 48.1393 36.678 48.1694 36.4997C48.1874 36.4046 48.1694 36.2798 48.1694 36.1966C48.2958 36.2382 48.4945 36.4344 48.5306 36.5889C48.5728 36.7731 48.5908 37.0287 48.8196 37.1594C48.7414 37.2367 48.3319 37.3972 48.2537 37.4804C47.9947 37.7359 47.8502 37.7181 47.6154 37.6706C47.766 37.5636 47.8864 37.4328 47.772 37.2605C47.6516 37.0762 47.4589 37.0822 47.2783 37.0822C46.9531 37.0822 46.7725 37.2486 46.7123 37.5636C46.6521 37.8786 46.8327 38.1579 47.1157 38.2054C47.218 38.2233 47.4408 38.2054 47.6034 38.1282C47.5251 38.5264 47.1157 38.5858 46.8748 38.5264C46.7183 38.4907 46.4714 38.2887 46.4714 38.1282C46.3932 38.9305 45.8212 38.9305 45.5803 39.0732C45.496 38.8473 45.4117 38.2054 45.8212 37.8072C45.5803 37.8845 45.3335 37.8073 45.1709 37.6468C45.0565 37.5339 44.9421 37.1535 45.0926 37.0049C45.1709 37.1654 45.5803 37.6468 46.0439 37.3496C46.2908 37.1892 46.2426 36.8682 46.1764 36.6127C46.1102 36.3809 45.8934 36.3155 45.6586 36.2977C45.4178 36.2798 45.2552 36.6008 45.2552 36.684C45.1227 36.6483 45.1288 36.4938 45.0926 36.363C45.0144 36.0421 44.9301 35.8816 44.7675 35.5607C45.2552 35.638 45.5803 35.4002 45.9055 35.323C45.8272 35.4002 45.7429 35.4834 45.7429 35.6439C45.6887 35.8935 46.0319 35.9589 46.2547 35.9589C46.4474 35.9589 46.5798 35.8757 46.5738 35.6498C46.5617 35.2873 46.1282 34.8178 45.7549 34.7702C44.6651 34.6276 44.0329 35.3348 44.2858 36.3928C44.3942 36.8563 44.5568 37.3021 44.623 37.7775C44.7253 38.5145 44.8458 39.2455 44.8819 40.03L45.0746 40.1667C46.2246 39.5843 47.3264 39.0256 48.2898 38.253C48.7835 37.837 49.2772 37.3912 49.5361 36.7791ZM43.9426 36.7375C43.9005 36.5116 43.768 36.3155 43.768 36.0778C43.768 35.7271 43.8523 35.4181 44.0389 35.1209C44.3219 34.6751 44.7133 34.3839 45.3937 34.2888C44.7073 33.9263 44.7374 33.4449 44.9 32.9338C44.9541 32.7733 45.0324 32.6247 45.1167 32.4761C45.4418 31.8818 46.0018 31.4955 46.4413 31.0022C47.1458 30.2058 47.8141 29.3797 48.4403 28.5179C48.7654 28.0722 48.7293 27.674 48.2296 27.4362C47.7479 27.2045 47.2542 27.2579 46.7906 27.4897C46.5196 27.6264 46.4052 27.8939 46.4112 28.1851C46.4112 28.4407 46.5617 28.6071 46.8146 28.6903C47.0916 28.7794 47.3385 28.7378 47.5552 28.5536C47.6576 28.4644 47.7599 28.304 47.6214 28.1673C47.5552 28.0959 47.4167 28.09 47.3625 28.1257C47.3324 28.1494 47.3264 28.2564 47.3023 28.3277C47.2722 28.4109 46.9892 28.1376 46.8447 28.0662C46.628 27.9593 46.7243 27.9652 46.8568 27.8642C47.1458 27.6443 47.3385 27.4481 47.3445 27.5432C47.3505 27.6264 47.3445 27.7215 47.3746 27.7215C48.0489 27.6502 48.2597 28.2208 48.0249 28.6011C47.784 28.9934 47.4167 29.0469 47.0073 29.0112C46.8508 28.9993 46.6942 28.9102 46.5437 28.9755C46.7123 29.1479 46.8809 29.35 46.8748 29.552C46.8748 29.9562 46.2306 30.3663 45.7188 30.39C46.0981 29.9918 45.9898 29.5342 45.9476 29.0766C45.9055 28.6606 45.7248 28.2148 46.056 27.8463C46.2246 27.6621 46.2306 27.6264 46.3149 27.5492C46.0741 27.4719 45.9115 27.3887 45.7489 27.3114C45.8573 27.2639 46.1523 27.0737 46.2366 27.0737C45.6706 26.515 45.9657 26.0515 46.0801 25.576C46.2005 25.1005 46.2727 24.53 45.8272 24.1021C46.1644 24.0367 46.4594 24.2328 46.6822 24.4052C47.1759 24.7974 46.8869 25.1421 46.8026 25.3026C46.7665 25.3739 46.7243 25.3799 46.628 25.5463C46.8748 25.4512 47.1036 25.3323 47.3445 25.2729C47.6997 25.1778 48.1332 25.4036 48.2356 25.7008C48.344 25.998 48.0068 26.4259 47.4408 26.5269C47.3866 26.5388 47.4408 26.6517 47.4348 26.7884C47.4348 26.836 47.0555 26.6458 46.8869 26.521C46.7002 26.3902 46.8447 26.3724 46.9351 26.2892C47.0494 26.1822 47.3264 25.891 47.3385 25.9623C47.3565 26.0693 47.3264 26.206 47.4348 26.1822C47.5974 26.1466 47.784 26.0099 47.778 25.891C47.772 25.784 47.6756 25.7365 47.5853 25.7305C47.206 25.7008 46.8809 25.8197 46.64 26.1168C46.4895 26.3011 46.4654 26.4972 46.5678 26.7171C46.6701 26.943 46.8447 27.0202 47.0856 27.0321C47.772 27.0678 48.2597 26.6874 48.6992 26.2476C48.8618 26.0871 48.8919 25.8613 48.7353 25.6592C48.344 25.1659 48.0008 24.637 47.5131 24.215C46.8809 23.6682 46.2547 23.1095 45.6646 22.5271C44.9963 21.8674 44.8036 21.0294 45.6767 20.4054C45.6947 20.3935 45.6887 20.3519 45.6947 20.3043C45.5623 20.2924 45.4238 20.2865 45.2913 20.2627C44.5808 20.132 43.9968 19.3712 44.1714 18.7056C44.328 18.1113 44.4062 17.505 44.4965 16.8988C44.6109 16.1737 44.8277 15.4606 44.7735 14.7117C44.7434 14.2838 44.6109 14.1887 44.2075 14.361C43.8162 14.5275 43.5573 14.7771 43.2321 15.0326C42.7926 15.3773 42.5638 15.7518 42.7866 15.9657C43.1057 16.2629 43.4067 16.0846 43.6837 15.8528C43.774 15.7755 43.8704 15.6983 43.9607 15.6091C44.051 15.52 44.1473 15.4071 44.0149 15.3001C43.8704 15.1812 43.78 15.3357 43.7259 15.4249C43.6897 15.4784 43.6657 15.5378 43.6295 15.5913C43.5693 15.6923 43.4549 15.7577 43.3345 15.7696C43.2803 15.7755 43.2261 15.7755 43.1719 15.7815C43.0816 15.7874 43.0154 15.6983 43.0455 15.6151C43.0756 15.5438 43.1057 15.4724 43.1478 15.4071C43.2382 15.3417 43.3285 15.2823 43.4188 15.2169C43.4971 15.199 43.6536 15.0861 43.7198 15.0326C43.9246 14.8603 44.1955 14.7236 44.3219 14.8484C44.5688 15.1099 44.3641 15.3773 44.2678 15.6389C44.1955 15.8231 44.045 15.9301 43.8944 16.0311C43.7499 16.1321 43.5994 16.2272 43.4248 16.3461C43.5814 16.4055 43.6777 16.4055 43.7801 16.3461C43.8342 16.3104 43.9547 16.251 43.9486 16.3818C43.9306 16.6433 44.0329 16.9285 43.8704 17.1722C43.7319 17.3862 43.5874 17.5229 43.3887 17.2019C43.2923 17.0474 43.1298 16.9404 43.0094 16.8037C42.7565 16.5125 42.4434 16.3936 42.2868 15.9836C42.2567 15.9122 42.2628 15.7696 42.1965 15.7637L41.7148 16.1203C41.8654 16.3104 45.3816 20.2568 45.472 26.9846C45.5562 33.0942 42.6842 36.8444 41.9135 37.8607L42.5578 38.3303C42.6541 38.2887 42.7444 38.2114 42.8287 38.1104C42.9311 37.9796 43.0334 37.831 43.0756 37.6765C43.1117 37.5517 43.1599 37.1773 43.1599 37.1773C43.1599 37.1773 43.4007 37.4982 43.485 37.7359C43.5753 38.0093 43.7138 38.2471 43.5874 38.4848C43.491 38.669 43.2502 38.3719 43.0816 38.5086C43.0575 38.5264 43.0455 38.5561 43.0094 38.6036C43.5332 38.7225 43.9547 38.9543 44.1172 39.4535L44.4604 39.7032C44.4725 39.6378 44.4424 39.5605 44.4363 39.507C44.2557 38.5739 44.1052 37.6527 43.9426 36.7375Z" fill="#1C9BD7"/>
<path d="M9.84766 10.197L10.6424 9.50165L12.8642 10.0187L11.7382 8.62799L12.527 8.05149L13.6529 9.43627L13.659 7.2967L14.5501 6.75586L14.4959 9.14505L17.5907 10.0306L16.5069 10.6368L14.1165 10.0009L15.2786 11.4273L14.4296 12.0394L13.2977 10.6249L13.4723 12.8002L12.5029 13.6738L12.3042 10.8092L9.84766 10.197Z" fill="#1C9BD7"/>
<path d="M18.7812 4.83594L17.8841 5.15687L17.8359 9.88178L18.703 9.48952L18.709 8.52671L20.2082 8.02153L20.8404 8.71689L21.9061 8.41973L18.7812 4.83594ZM18.6789 7.8254L18.7391 6.16723L19.8048 7.45098L18.6789 7.8254Z" fill="#1C9BD7"/>
<path d="M22.2943 8.27635L21.7344 3.97937L22.9988 3.77135L24.5161 6.48743L25.2266 3.5574L26.6295 3.50391L26.9847 7.83061L26.1116 7.83655L25.7745 4.86492L25.0038 7.80089L24.3174 7.84249L22.9025 5.275L23.2517 8.104L22.2943 8.27635Z" fill="#1C9BD7"/>
<path d="M31.5224 4.81831L31.6489 3.98031L28.259 3.57617L27.7773 7.86127C27.7773 7.86127 29.108 7.98013 29.8064 8.07523C30.6795 8.20004 31.3719 7.71269 31.4863 6.92223C31.6187 6.01886 30.8601 5.59688 30.4748 5.53151C30.0894 5.46613 29.0478 5.33538 29.0478 5.33538L29.1441 4.51521L31.5224 4.81831ZM30.0172 6.17932C30.3844 6.23281 30.5771 6.52403 30.5229 6.80337C30.4687 7.08864 30.1436 7.23128 29.8727 7.20751C29.6077 7.18374 28.7889 7.10647 28.7889 7.10647L28.9213 6.04857C28.9213 6.05451 29.6499 6.12583 30.0172 6.17932Z" fill="#1C9BD7"/>
<path d="M35.3949 6.78467C35.1239 6.64203 33.9679 6.23789 33.9679 6.23789L34.5038 4.75802L33.5344 4.4668L32.0352 8.54388C32.0352 8.54388 33.6367 9.03123 34.0281 9.17981C34.4195 9.32839 35.4972 9.40565 35.8946 8.45473C36.298 7.50381 35.6718 6.92731 35.3949 6.78467ZM34.9373 8.06248C34.8169 8.3537 34.2208 8.33587 33.9559 8.2586C33.6909 8.18134 33.2755 7.99116 33.2755 7.99116L33.6849 6.97486C33.6849 6.97486 34.1786 7.08778 34.5278 7.27202C34.8771 7.46221 35.0577 7.77126 34.9373 8.06248Z" fill="#1C9BD7"/>
<path d="M35.6367 9.8338L37.2985 5.83398L38.2679 6.29162L36.564 10.2855L35.6367 9.8338Z" fill="#1C9BD7"/>
<path d="M37.1953 10.5892L37.6047 9.8582C37.6047 9.8582 37.8817 10.09 38.1767 10.0959C38.4718 10.1078 38.7788 9.91168 39.1582 9.40651C39.5375 8.90133 40.5008 7.45117 40.5008 7.45117L43.1621 9.21632L40.7296 12.8239L39.9349 12.3068L41.8857 9.33519L40.8862 8.66954C40.8862 8.66954 39.8446 10.1672 39.3027 10.6903C38.7608 11.2133 38.1225 11.0885 37.9299 10.9815C37.7372 10.8804 37.1953 10.5892 37.1953 10.5892Z" fill="#1C9BD7"/>
<path d="M14.4949 42.4373C13.1823 41.4804 11.9059 42.2471 11.3881 42.8889C10.8642 43.5427 10.3103 44.9572 11.5326 45.9735C12.9656 47.1622 14.3384 46.3776 14.8863 45.5575C15.5245 44.5947 15.7894 43.3763 14.4949 42.4373ZM14.0072 44.9929C13.4412 45.7061 12.5742 45.7595 12.0684 45.3554C11.6108 44.9869 11.7674 44.0776 12.2431 43.5011C12.7428 42.8949 13.5255 42.7166 14.0433 43.1088C14.5672 43.507 14.531 44.3332 14.0072 44.9929Z" fill="#1C9BD7"/>
<path d="M19.4762 46.5911L19.8254 45.8185L16.851 44.4277L14.9062 48.279C14.9062 48.279 16.0141 48.8555 16.7908 49.2121C17.5675 49.5746 18.5068 49.426 18.844 48.6474C19.1872 47.8511 18.7055 47.227 18.2178 46.9655C17.8626 46.7753 16.9835 46.3712 16.9835 46.3712L17.3568 45.6104L19.4762 46.5911ZM17.3869 47.435C17.8144 47.6549 18.1335 47.9343 17.9649 48.2849C17.7843 48.6534 17.2845 48.5464 16.8691 48.3384C16.5741 48.1898 16.1285 47.9283 16.1285 47.9283L16.6042 47.0547C16.6042 47.0547 17.0678 47.2746 17.3869 47.435Z" fill="#1C9BD7"/>
<path d="M19.9507 49.3846L19.8242 50.181C19.8242 50.181 21.5823 50.6921 21.8954 49.658C22.1483 48.8318 22.4253 47.2272 22.4253 47.2272L23.5994 47.3995L23.1117 50.8288L24.0871 50.9417L24.7133 46.6863C24.7133 46.6863 23.768 46.5853 23.1418 46.4842C22.4975 46.3832 21.7088 46.2168 21.7088 46.2168C21.7088 46.2168 21.3355 48.2791 21.1609 48.9269C20.9742 49.6401 19.9507 49.3846 19.9507 49.3846Z" fill="#1C9BD7"/>
<path d="M28.3989 48.3088C28.0136 48.291 26.9659 48.3504 26.9659 48.3504L26.9118 46.7814L25.9062 46.7695L26.0387 51.0784C26.0387 51.0784 27.7427 51.0487 28.1641 51.0487C28.5796 51.0427 29.561 50.6208 29.567 49.5985C29.5791 48.5763 28.8264 48.3267 28.3989 48.3088ZM28.6157 49.5926C28.6157 49.9076 28.3448 50.181 27.8932 50.2047C27.6222 50.2166 27.0382 50.2582 27.0382 50.2582L27.0141 49.0577C27.0141 49.0577 27.4416 49.0101 27.8631 49.0042C28.3508 49.0042 28.6157 49.2835 28.6157 49.5926Z" fill="#1C9BD7"/>
<path d="M30.1557 50.8765L29.668 46.6093L30.7457 46.4785L31.2214 50.728L30.1557 50.8765Z" fill="#1C9BD7"/>
<path d="M39.0553 45.1239C38.7121 45.3022 38.0558 45.6944 38.0558 45.6944L37.231 44.375L36.3398 44.8386L38.6158 48.5175C38.6158 48.5175 40.0969 47.6914 40.4582 47.4833C40.8195 47.2753 41.5119 46.3541 40.9339 45.5042C40.3799 44.6781 39.3263 44.9812 39.0553 45.1239ZM40.1271 46.0035C40.2836 46.2768 40.1812 46.6394 39.7959 46.8831C39.5671 47.0316 39.0433 47.3407 39.0433 47.3407L38.4352 46.3541C38.4352 46.3541 38.7482 46.1461 39.1095 45.9381C39.543 45.6944 39.9705 45.7301 40.1271 46.0035Z" fill="#1C9BD7"/>
<path d="M42.1556 46.3475L39.6328 42.8529L40.4818 42.2051L42.9925 45.7116L42.1556 46.3475Z" fill="#1C9BD7"/>
<path d="M35.1838 46.8293L36.0026 46.5262C36.0026 46.5262 35.262 45.2603 33.7327 45.7357C32.1371 46.235 32.2094 47.6197 32.4081 48.3983C32.6248 49.2482 33.7267 50.318 35.244 49.7653C36.8576 49.1769 36.412 47.7921 36.412 47.7921L35.5751 48.1309C35.5751 48.1309 35.6835 48.6836 35.0212 49.0105C34.6359 49.2006 33.6063 49.1056 33.3052 48.1071C33.0403 47.2453 33.4076 46.645 33.9133 46.4489C34.6419 46.1696 35.1838 46.8293 35.1838 46.8293Z" fill="#1C9BD7"/>
<path d="M65.1082 41.3841V42.6439H61.5457V49.1892H59.9219V41.3841H65.1082Z" fill="#009846"/>
<path d="M72.2027 47.9348V49.1892H67.9939V47.9348H72.2027ZM68.5261 41.3841V49.1892H66.8969V41.3841H68.5261ZM71.6542 44.563V45.7852H67.9939V44.563H71.6542ZM72.1973 41.3841V42.6439H67.9939V41.3841H72.1973Z" fill="#009846"/>
<path d="M80.4268 45.1044V45.4743C80.4268 46.0675 80.3454 46.6 80.1824 47.0718C80.0195 47.5435 79.7896 47.9455 79.4927 48.2779C79.1959 48.6067 78.8411 48.8586 78.4283 49.0338C78.0192 49.2089 77.5648 49.2964 77.0652 49.2964C76.5692 49.2964 76.1148 49.2089 75.7021 49.0338C75.293 48.8586 74.9382 48.6067 74.6377 48.2779C74.3372 47.9455 74.1036 47.5435 73.9371 47.0718C73.7742 46.6 73.6927 46.0675 73.6927 45.4743V45.1044C73.6927 44.5076 73.7742 43.9751 73.9371 43.5069C74.1 43.0352 74.3299 42.6332 74.6268 42.3008C74.9273 41.9684 75.2821 41.7147 75.6912 41.5396C76.104 41.3645 76.5583 41.2769 77.0543 41.2769C77.554 41.2769 78.0083 41.3645 78.4175 41.5396C78.8302 41.7147 79.185 41.9684 79.4819 42.3008C79.7824 42.6332 80.0141 43.0352 80.177 43.5069C80.3436 43.9751 80.4268 44.5076 80.4268 45.1044ZM78.7813 45.4743V45.0937C78.7813 44.6791 78.7433 44.3146 78.6673 44.0001C78.5912 43.6856 78.479 43.4212 78.3306 43.2068C78.1821 42.9923 78.0011 42.8315 77.7875 42.7243C77.5739 42.6135 77.3295 42.5581 77.0543 42.5581C76.7792 42.5581 76.5348 42.6135 76.3212 42.7243C76.1112 42.8315 75.932 42.9923 75.7835 43.2068C75.6387 43.4212 75.5283 43.6856 75.4523 44.0001C75.3762 44.3146 75.3382 44.6791 75.3382 45.0937V45.4743C75.3382 45.8853 75.3762 46.2498 75.4523 46.5679C75.5283 46.8824 75.6405 47.1486 75.789 47.3666C75.9374 47.581 76.1184 47.7436 76.3321 47.8544C76.5457 47.9652 76.79 48.0206 77.0652 48.0206C77.3404 48.0206 77.5847 47.9652 77.7984 47.8544C78.012 47.7436 78.1912 47.581 78.336 47.3666C78.4808 47.1486 78.5912 46.8824 78.6673 46.5679C78.7433 46.2498 78.7813 45.8853 78.7813 45.4743Z" fill="#009846"/>
<path d="M83.9479 46.659L87.1249 41.3841H88.7541V49.1892H87.1249V43.9144L83.9479 49.1892H82.3187V41.3841H83.9479V46.659Z" fill="#009846"/>
<path d="M96.2179 44.563V45.8174H92.0905V44.563H96.2179ZM92.5739 41.3841V49.1892H90.9447V41.3841H92.5739ZM97.3801 41.3841V49.1892H95.7563V41.3841H97.3801Z" fill="#009846"/>
<path d="M102.552 42.0864H104.312C104.782 42.0864 105.217 42.1632 105.615 42.3169C106.013 42.467 106.359 42.685 106.652 42.9709C106.949 43.2532 107.179 43.5945 107.342 43.9948C107.505 44.3914 107.586 44.8346 107.586 45.3242C107.586 45.8031 107.505 46.2391 107.342 46.6322C107.179 47.0217 106.949 47.3559 106.652 47.6346C106.359 47.9134 106.013 48.1278 105.615 48.2779C105.217 48.428 104.782 48.503 104.312 48.503H102.552C102.078 48.503 101.642 48.428 101.243 48.2779C100.845 48.1278 100.497 47.9152 100.201 47.64C99.9037 47.3612 99.672 47.0271 99.5055 46.6376C99.3425 46.248 99.2611 45.8138 99.2611 45.3349C99.2611 44.8453 99.3425 44.4022 99.5055 44.0055C99.672 43.6052 99.9037 43.2621 100.201 42.9762C100.497 42.6903 100.845 42.4706 101.243 42.3169C101.642 42.1632 102.078 42.0864 102.552 42.0864ZM102.552 43.3729C102.205 43.3729 101.899 43.448 101.634 43.5981C101.37 43.7482 101.165 43.9697 101.021 44.2628C100.876 44.5523 100.803 44.9096 100.803 45.3349C100.803 45.6423 100.845 45.9139 100.928 46.1497C101.015 46.382 101.136 46.5768 101.292 46.734C101.448 46.8913 101.632 47.011 101.846 47.0932C102.06 47.1754 102.295 47.2165 102.552 47.2165H104.323C104.666 47.2165 104.967 47.1432 105.224 46.9967C105.485 46.8502 105.687 46.6358 105.832 46.3534C105.977 46.0711 106.05 45.728 106.05 45.3242C106.05 45.0061 106.008 44.7256 105.925 44.4826C105.841 44.2396 105.724 44.0359 105.572 43.8715C105.42 43.7071 105.237 43.5838 105.023 43.5016C104.813 43.4158 104.58 43.3729 104.323 43.3729H102.552ZM104.214 41.0625V49.5108H102.65V41.0625H104.214Z" fill="#009846"/>
<path d="M115.93 45.1044V45.4743C115.93 46.0675 115.849 46.6 115.686 47.0718C115.523 47.5435 115.293 47.9455 114.996 48.2779C114.699 48.6067 114.344 48.8586 113.931 49.0338C113.522 49.2089 113.068 49.2964 112.568 49.2964C112.072 49.2964 111.618 49.2089 111.205 49.0338C110.796 48.8586 110.441 48.6067 110.141 48.2779C109.84 47.9455 109.607 47.5435 109.44 47.0718C109.277 46.6 109.196 46.0675 109.196 45.4743V45.1044C109.196 44.5076 109.277 43.9751 109.44 43.5069C109.603 43.0352 109.833 42.6332 110.13 42.3008C110.43 41.9684 110.785 41.7147 111.194 41.5396C111.607 41.3645 112.061 41.2769 112.557 41.2769C113.057 41.2769 113.511 41.3645 113.921 41.5396C114.333 41.7147 114.688 41.9684 114.985 42.3008C115.286 42.6332 115.517 43.0352 115.68 43.5069C115.847 43.9751 115.93 44.5076 115.93 45.1044ZM114.284 45.4743V45.0937C114.284 44.6791 114.246 44.3146 114.17 44.0001C114.094 43.6856 113.982 43.4212 113.834 43.2068C113.685 42.9923 113.504 42.8315 113.291 42.7243C113.077 42.6135 112.833 42.5581 112.557 42.5581C112.282 42.5581 112.038 42.6135 111.824 42.7243C111.614 42.8315 111.435 42.9923 111.287 43.2068C111.142 43.4212 111.031 43.6856 110.955 44.0001C110.879 44.3146 110.841 44.6791 110.841 45.0937V45.4743C110.841 45.8853 110.879 46.2498 110.955 46.5679C111.031 46.8824 111.144 47.1486 111.292 47.3666C111.441 47.581 111.622 47.7436 111.835 47.8544C112.049 47.9652 112.293 48.0206 112.568 48.0206C112.843 48.0206 113.088 47.9652 113.301 47.8544C113.515 47.7436 113.694 47.581 113.839 47.3666C113.984 47.1486 114.094 46.8824 114.17 46.5679C114.246 46.2498 114.284 45.8853 114.284 45.4743Z" fill="#009846"/>
<path d="M120.961 46.407H118.946V45.1527H120.961C121.272 45.1527 121.526 45.1026 121.721 45.0026C121.917 44.8989 122.06 44.756 122.15 44.5737C122.241 44.3914 122.286 44.186 122.286 43.9572C122.286 43.7249 122.241 43.5087 122.15 43.3086C122.06 43.1085 121.917 42.9477 121.721 42.8261C121.526 42.7046 121.272 42.6439 120.961 42.6439H119.511V49.1892H117.882V41.3841H120.961C121.58 41.3841 122.11 41.4949 122.552 41.7165C122.997 41.9345 123.338 42.2365 123.573 42.6224C123.808 43.0084 123.926 43.4498 123.926 43.9465C123.926 44.4504 123.808 44.8864 123.573 45.2545C123.338 45.6226 122.997 45.9067 122.552 46.1068C122.11 46.307 121.58 46.407 120.961 46.407Z" fill="#009846"/>
<path d="M126.573 41.3841H127.952L129.983 47.1146L132.014 41.3841H133.394L130.537 49.1892H129.429L126.573 41.3841ZM125.829 41.3841H127.203L127.452 46.9699V49.1892H125.829V41.3841ZM132.764 41.3841H134.143V49.1892H132.514V46.9699L132.764 41.3841Z" fill="#009846"/>
<path d="M139.663 42.7189L137.512 49.1892H135.78L138.718 41.3841H139.82L139.663 42.7189ZM141.449 49.1892L139.293 42.7189L139.12 41.3841H140.233L143.187 49.1892H141.449ZM141.352 46.2838V47.5435H137.175V46.2838H141.352Z" fill="#009846"/>
<path d="M152.139 47.9402L152.036 51.0708H150.515V49.1892H149.869V47.9402H152.139ZM144.618 49.1892V41.3841H146.241V47.9348H149.424V41.3841H151.058V49.1892H144.618Z" fill="#009846"/>
<path d="M155.486 46.659L158.663 41.3841H160.293V49.1892H158.663V43.9144L155.486 49.1892H153.857V41.3841H155.486V46.659Z" fill="#009846"/>
<path d="M168.978 45.1044V45.4743C168.978 46.0675 168.897 46.6 168.734 47.0718C168.571 47.5435 168.341 47.9455 168.044 48.2779C167.747 48.6067 167.393 48.8586 166.98 49.0338C166.571 49.2089 166.116 49.2964 165.617 49.2964C165.121 49.2964 164.666 49.2089 164.254 49.0338C163.844 48.8586 163.49 48.6067 163.189 48.2779C162.889 47.9455 162.655 47.5435 162.489 47.0718C162.326 46.6 162.244 46.0675 162.244 45.4743V45.1044C162.244 44.5076 162.326 43.9751 162.489 43.5069C162.651 43.0352 162.881 42.6332 163.178 42.3008C163.479 41.9684 163.834 41.7147 164.243 41.5396C164.655 41.3645 165.11 41.2769 165.606 41.2769C166.105 41.2769 166.56 41.3645 166.969 41.5396C167.382 41.7147 167.736 41.9684 168.033 42.3008C168.334 42.6332 168.566 43.0352 168.729 43.5069C168.895 43.9751 168.978 44.5076 168.978 45.1044ZM167.333 45.4743V45.0937C167.333 44.6791 167.295 44.3146 167.219 44.0001C167.143 43.6856 167.03 43.4212 166.882 43.2068C166.734 42.9923 166.553 42.8315 166.339 42.7243C166.125 42.6135 165.881 42.5581 165.606 42.5581C165.331 42.5581 165.086 42.6135 164.873 42.7243C164.663 42.8315 164.483 42.9923 164.335 43.2068C164.19 43.4212 164.08 43.6856 164.004 44.0001C163.928 44.3146 163.89 44.6791 163.89 45.0937V45.4743C163.89 45.8853 163.928 46.2498 164.004 46.5679C164.08 46.8824 164.192 47.1486 164.34 47.3666C164.489 47.581 164.67 47.7436 164.884 47.8544C165.097 47.9652 165.342 48.0206 165.617 48.0206C165.892 48.0206 166.136 47.9652 166.35 47.8544C166.563 47.7436 166.743 47.581 166.887 47.3666C167.032 47.1486 167.143 46.8824 167.219 46.5679C167.295 46.2498 167.333 45.8853 167.333 45.4743Z" fill="#009846"/>
<path d="M176.203 44.563V45.8174H172.076V44.563H176.203ZM172.559 41.3841V49.1892H170.93V41.3841H172.559ZM177.365 41.3841V49.1892H175.742V41.3841H177.365Z" fill="#009846"/>
<path d="M184.835 44.563V45.8174H180.707V44.563H184.835ZM181.191 41.3841V49.1892H179.561V41.3841H181.191ZM185.997 41.3841V49.1892H184.373V41.3841H185.997Z" fill="#009846"/>
<path d="M191.505 42.7189L189.355 49.1892H187.622L190.561 41.3841H191.663L191.505 42.7189ZM193.292 49.1892L191.136 42.7189L190.962 41.3841H192.076L195.03 49.1892H193.292ZM193.194 46.2838V47.5435H189.018V46.2838H193.194Z" fill="#009846"/>
<path d="M200.745 46.3534H198.595L198.046 46.1283C197.427 45.9353 196.953 45.6458 196.623 45.2599C196.297 44.8739 196.134 44.3825 196.134 43.7857C196.134 43.2604 196.252 42.8208 196.487 42.467C196.726 42.1096 197.063 41.8398 197.498 41.6575C197.936 41.4753 198.455 41.3841 199.056 41.3841H201.815V49.1892H200.18V42.6439H199.056C198.611 42.6439 198.283 42.7529 198.073 42.9709C197.863 43.1889 197.758 43.498 197.758 43.8983C197.758 44.1913 197.807 44.4325 197.905 44.622C198.003 44.8078 198.146 44.9472 198.334 45.0401C198.522 45.1294 198.759 45.1741 199.045 45.1741H200.74L200.745 46.3534ZM199.176 45.7048L197.422 49.1892H195.657L197.416 45.7048H199.176Z" fill="#009846"/>
<path d="M212.056 46.6H213.68C213.647 47.1254 213.5 47.5917 213.24 47.9992C212.983 48.4066 212.622 48.7246 212.159 48.9533C211.699 49.1821 211.145 49.2964 210.497 49.2964C209.99 49.2964 209.536 49.2107 209.134 49.0391C208.732 48.864 208.388 48.6138 208.102 48.2886C207.82 47.9634 207.604 47.5703 207.456 47.1093C207.308 46.6483 207.233 46.1319 207.233 45.5601V45.0186C207.233 44.4468 207.309 43.9304 207.461 43.4694C207.617 43.0048 207.838 42.6099 208.124 42.2847C208.414 41.9595 208.759 41.7093 209.161 41.5342C209.563 41.3591 210.012 41.2716 210.508 41.2716C211.167 41.2716 211.723 41.3895 212.175 41.6254C212.631 41.8612 212.984 42.1864 213.234 42.601C213.488 43.0156 213.64 43.4873 213.69 44.0162H212.061C212.043 43.7017 211.98 43.4355 211.871 43.2175C211.763 42.9959 211.598 42.8297 211.377 42.7189C211.16 42.6046 210.87 42.5474 210.508 42.5474C210.237 42.5474 209.999 42.5974 209.797 42.6975C209.594 42.7976 209.424 42.9494 209.286 43.1531C209.149 43.3568 209.045 43.6142 208.977 43.9251C208.911 44.2324 208.879 44.5934 208.879 45.0079V45.5601C208.879 45.9639 208.91 46.3195 208.971 46.6268C209.033 46.9306 209.127 47.1879 209.254 47.3988C209.384 47.606 209.55 47.7633 209.753 47.8705C209.96 47.9741 210.208 48.026 210.497 48.026C210.838 48.026 211.118 47.9723 211.339 47.8651C211.56 47.7579 211.728 47.5989 211.844 47.388C211.964 47.1772 212.034 46.9145 212.056 46.6Z" fill="#009846"/>
<path d="M217.098 46.659L220.274 41.3841H221.904V49.1892H220.274V43.9144L217.098 49.1892H215.468V41.3841H217.098V46.659Z" fill="#009846"/>
<path d="M228.678 46.6H230.302C230.269 47.1254 230.122 47.5917 229.862 47.9992C229.605 48.4066 229.244 48.7246 228.781 48.9533C228.321 49.1821 227.767 49.2964 227.119 49.2964C226.612 49.2964 226.158 49.2107 225.756 49.0391C225.354 48.864 225.01 48.6138 224.724 48.2886C224.442 47.9634 224.226 47.5703 224.078 47.1093C223.93 46.6483 223.855 46.1319 223.855 45.5601V45.0186C223.855 44.4468 223.931 43.9304 224.083 43.4694C224.239 43.0048 224.46 42.6099 224.746 42.2847C225.036 41.9595 225.381 41.7093 225.783 41.5342C226.185 41.3591 226.634 41.2716 227.13 41.2716C227.789 41.2716 228.345 41.3895 228.797 41.6254C229.253 41.8612 229.606 42.1864 229.856 42.601C230.11 43.0156 230.262 43.4873 230.312 44.0162H228.683C228.665 43.7017 228.602 43.4355 228.493 43.2175C228.385 42.9959 228.22 42.8297 227.999 42.7189C227.782 42.6046 227.492 42.5474 227.13 42.5474C226.859 42.5474 226.621 42.5974 226.419 42.6975C226.216 42.7976 226.046 42.9494 225.908 43.1531C225.771 43.3568 225.667 43.6142 225.599 43.9251C225.533 44.2324 225.501 44.5934 225.501 45.0079V45.5601C225.501 45.9639 225.532 46.3195 225.593 46.6268C225.655 46.9306 225.749 47.1879 225.876 47.3988C226.006 47.606 226.172 47.7633 226.375 47.8705C226.582 47.9741 226.83 48.026 227.119 48.026C227.46 48.026 227.74 47.9723 227.961 47.8651C228.182 47.7579 228.35 47.5989 228.466 47.388C228.585 47.1772 228.656 46.9145 228.678 46.6Z" fill="#009846"/>
<path d="M235.522 41.3841V49.1892H233.899V41.3841H235.522ZM237.955 41.3841V42.6439H231.504V41.3841H237.955Z" fill="#009846"/>
<path d="M244.969 47.9348V49.1892H240.76V47.9348H244.969ZM241.292 41.3841V49.1892H239.663V41.3841H241.292ZM244.42 44.563V45.7852H240.76V44.563H244.42ZM244.963 41.3841V42.6439H240.76V41.3841H244.963Z" fill="#009846"/>
<path d="M247.441 41.3841H248.821L250.852 47.1146L252.883 41.3841H254.262L251.406 49.1892H250.298L247.441 41.3841ZM246.697 41.3841H248.071L248.321 46.9699V49.1892H246.697V41.3841ZM253.632 41.3841H255.012V49.1892H253.383V46.9699L253.632 41.3841Z" fill="#009846"/>
<path d="M260.531 42.7189L258.381 49.1892H256.648L259.587 41.3841H260.689L260.531 42.7189ZM262.318 49.1892L260.162 42.7189L259.988 41.3841H261.102L264.056 49.1892H262.318ZM262.22 46.2838V47.5435H258.044V46.2838H262.22Z" fill="#009846"/>
</svg>
