<svg width="8" height="15" viewBox="0 0 8 15" fill="none" xmlns="http://www.w3.org/2000/svg">
<path d="M0.217212 8.0853L6.27705 14.7604C6.4172 14.9149 6.6043 15 6.8038 15C7.00329 15 7.19039 14.9149 7.33055 14.7604L7.77681 14.2689C8.0672 13.9487 8.0672 13.4282 7.77681 13.1084L2.68822 7.50311L7.78246 1.89157C7.92261 1.73706 8 1.53108 8 1.31145C8 1.09158 7.92261 0.885602 7.78246 0.730969L7.33619 0.239631C7.19592 0.0851198 7.00894 -3.81681e-07 6.80944 -3.6424e-07C6.60995 -3.468e-07 6.42285 0.0851198 6.28269 0.239631L0.217212 6.9208C0.0767231 7.0758 -0.000440488 7.28275 2.36454e-06 7.50274C-0.000440449 7.7236 0.0767232 7.93042 0.217212 8.0853Z" fill="white"/>
</svg>
