<svg width="12" height="21" viewBox="0 0 12 21" fill="none" xmlns="http://www.w3.org/2000/svg">
<path d="M11.6742 9.68058L2.58443 0.335485C2.37419 0.11917 2.09355 0 1.7943 0C1.49506 0 1.21441 0.11917 1.00418 0.335485L0.334782 1.02353C-0.1008 1.47187 -0.1008 2.20054 0.334782 2.6482L7.96767 10.4956L0.326312 18.3518C0.116078 18.5681 0 18.8565 0 19.164C0 19.4718 0.116078 19.7602 0.326312 19.9766L0.99571 20.6645C1.20611 20.8808 1.48659 21 1.78583 21C2.08508 21 2.36572 20.8808 2.57596 20.6645L11.6742 11.3109C11.8849 11.0939 12.0007 10.8042 12 10.4962C12.0007 10.187 11.8849 9.89741 11.6742 9.68058Z" fill="#7287A7"/>
</svg>
