<svg width="12" height="21" viewBox="0 0 12 21" fill="none" xmlns="http://www.w3.org/2000/svg">
<path d="M0.325817 11.3194L9.41557 20.6645C9.62581 20.8808 9.90645 21 10.2057 21C10.5049 21 10.7856 20.8808 10.9958 20.6645L11.6652 19.9765C12.1008 19.5281 12.1008 18.7995 11.6652 18.3518L4.03233 10.5044L11.6737 2.6482C11.8839 2.43188 12 2.14352 12 1.83603C12 1.5282 11.8839 1.23984 11.6737 1.02336L11.0043 0.335482C10.7939 0.119167 10.5134 -1.77739e-06 10.2142 -1.75123e-06C9.91492 -1.72507e-06 9.63427 0.119168 9.42404 0.335482L0.325817 9.68912C0.115084 9.90611 -0.000660887 10.1958 2.89709e-06 10.5038C-0.000660833 10.813 0.115084 11.1026 0.325817 11.3194Z" fill="#7287A7"/>
</svg>
