<svg width="19" height="19" viewBox="0 0 19 19" fill="none" xmlns="http://www.w3.org/2000/svg">
<path fill-rule="evenodd" clip-rule="evenodd" d="M18.6995 8.33786C18.6698 8.07417 18.3624 7.87602 18.0965 7.87602C17.237 7.87602 16.4743 7.37132 16.1544 6.5908C15.8276 5.79136 16.0383 4.85903 16.6789 4.27142C16.8805 4.08709 16.905 3.77852 16.7359 3.56418C16.296 3.00553 15.796 2.50091 15.25 2.06357C15.0363 1.89201 14.7226 1.91588 14.5372 2.12115C13.9781 2.74031 12.9739 2.97042 12.1979 2.64664C11.3904 2.30695 10.8812 1.48866 10.931 0.61028C10.9474 0.334378 10.7458 0.0944897 10.4707 0.0624535C9.77009 -0.0185794 9.06334 -0.021092 8.36064 0.0568698C8.08871 0.086882 7.88707 0.321117 7.89622 0.593529C7.92679 1.46325 7.41142 2.26723 6.61191 2.59471C5.8452 2.90789 4.84803 2.67972 4.29008 2.06608C4.10568 1.86395 3.79711 1.8391 3.58228 2.00654C3.02015 2.44758 2.50889 2.95263 2.06492 3.50666C1.89176 3.72205 1.91723 4.03425 2.1209 4.21956C2.7737 4.81073 2.98448 5.75116 2.64534 6.55981C2.32156 7.33077 1.521 7.82765 0.604516 7.82765C0.307116 7.81809 0.0952858 8.0177 0.062761 8.28809C-0.0197376 8.99275 -0.0207147 9.71074 0.0587128 10.4211C0.0881667 10.6859 0.40497 10.8823 0.673753 10.8823C1.4905 10.8615 2.27466 11.3671 2.60361 12.1676C2.93151 12.9671 2.72072 13.8988 2.07916 14.4869C1.8785 14.6713 1.85302 14.9793 2.02214 15.1937C2.45794 15.7488 2.95803 16.2539 3.50592 16.6949C3.72083 16.868 4.03351 16.8436 4.2198 16.6383C4.78095 16.0176 5.7851 15.7879 6.55802 16.1123C7.36758 16.451 7.87681 17.2692 7.82698 18.1481C7.81072 18.4241 8.01333 18.6644 8.28728 18.696C8.64568 18.7378 9.00625 18.7586 9.36779 18.7586C9.71098 18.7586 10.0542 18.7398 10.3974 18.7016C10.6694 18.6716 10.8709 18.4374 10.8618 18.1645C10.8303 17.2952 11.3466 16.4913 12.145 16.1643C12.9169 15.8491 13.9099 16.0798 14.4679 16.6928C14.6534 16.8945 14.9598 16.9189 15.1758 16.752C15.7369 16.312 16.2471 15.8074 16.6931 15.2518C16.8662 15.0369 16.8418 14.7242 16.6371 14.539C15.9843 13.9478 15.7725 13.0073 16.1116 12.1992C16.4304 11.4385 17.2012 10.9277 18.0304 10.9277L18.1464 10.9307C18.4153 10.9525 18.6627 10.7454 18.6953 10.4709C18.7779 9.7656 18.7789 9.04824 18.6995 8.33786ZM9.39396 12.5277C7.66875 12.5277 6.26544 11.1244 6.26544 9.39917C6.26544 7.67403 7.66875 6.27065 9.39396 6.27065C11.1191 6.27065 12.5224 7.67403 12.5224 9.39917C12.5224 11.1244 11.1191 12.5277 9.39396 12.5277Z" fill="#2CAD29"/>
</svg>
