<svg width="31" height="31" viewBox="0 0 31 31" fill="none" xmlns="http://www.w3.org/2000/svg">
<path d="M29.5105 15.0131C29.5105 23.0288 23.016 29.5263 15.0052 29.5263C6.99447 29.5263 0.5 23.0288 0.5 15.0131C0.5 6.9975 6.99447 0.5 15.0052 0.5C23.016 0.5 29.5105 6.9975 29.5105 15.0131Z" stroke="#31B52E"/>
<path d="M20.8176 19.5819L18.4112 16.9336C18.124 16.6174 17.6567 16.6174 17.3694 16.9336L16.7436 17.6222C16.5475 17.838 16.4856 18.1461 16.5572 18.4206L16.3211 18.6804C16.321 18.6805 16.3209 18.6805 16.3209 18.6806C16.1532 18.8653 15.109 18.5819 13.8468 17.1927C12.5847 15.8038 12.3271 14.6548 12.4948 14.4699C12.4948 14.4699 12.4948 14.4699 12.4948 14.4699L12.7311 14.2098C12.7978 14.2309 12.8667 14.2417 12.9356 14.2417C13.1242 14.2417 13.3128 14.1627 13.4565 14.0046L14.0823 13.3159C14.3695 12.9998 14.3695 12.4855 14.0823 12.1693L11.6758 9.52094C11.5367 9.36783 11.3517 9.28351 11.155 9.28351C10.9581 9.28351 10.7732 9.36788 10.6341 9.52094L10.0083 10.2097C9.81219 10.4255 9.75021 10.7336 9.82181 11.008C9.82181 11.008 9.62166 11.2304 9.61171 11.2444C8.94601 12.0588 8.82111 13.3409 9.26244 14.8739C9.69461 16.3748 10.6262 17.9648 11.8858 19.3509C13.1453 20.7371 14.59 21.7624 15.9538 22.238C16.5017 22.4291 17.0142 22.5238 17.4796 22.5238C18.2427 22.5238 18.8789 22.2691 19.335 21.7672L19.4663 21.6227C19.532 21.6435 19.6006 21.6547 19.6709 21.6547C19.8677 21.6547 20.0527 21.5703 20.1918 21.4173L20.8176 20.7285C21.1048 20.4124 21.1048 19.8981 20.8176 19.5819ZM11.155 10.0942L13.5614 12.7426L12.936 13.4317C12.936 13.4317 12.9358 13.4316 12.9356 13.4313L12.9266 13.4214L11.7324 12.1071L10.5292 10.7829L11.155 10.0942ZM18.8141 21.1939C18.814 21.1939 18.814 21.194 18.814 21.194C18.284 21.7772 17.3473 21.8735 16.1764 21.4651C14.923 21.028 13.5843 20.0736 12.4067 18.7776C11.2292 17.4816 10.3619 16.0083 9.96477 14.6289C9.59369 13.3402 9.68122 12.3093 10.2112 11.726L10.2113 11.7259L10.2777 11.6528L12.1452 13.7081L11.974 13.8966C11.9738 13.8967 11.9737 13.8969 11.9736 13.897C11.264 14.679 12.1166 16.4352 13.3259 17.766C14.231 18.7622 15.3526 19.5384 16.1575 19.5384C16.4282 19.5384 16.6631 19.4507 16.8418 19.2539C16.8419 19.2538 16.842 19.2538 16.842 19.2537L17.0131 19.0654L18.8806 21.1207L18.8141 21.1939ZM19.671 20.844L17.2645 18.1956L17.8903 17.5069L20.2967 20.1552C20.2967 20.1552 19.6712 20.8442 19.671 20.844Z" fill="#2CAD29"/>
<path d="M18.329 12.2605C17.6284 11.4894 16.6969 11.0648 15.7062 11.0648C15.5028 11.0648 15.3379 11.2463 15.3379 11.4702C15.3379 11.6941 15.5028 11.8756 15.7062 11.8756C16.5002 11.8755 17.2466 12.2158 17.8081 12.8338C18.3696 13.4516 18.6787 14.2731 18.6787 15.1469C18.6787 15.3708 18.8436 15.5523 19.047 15.5523C19.2504 15.5523 19.4154 15.3708 19.4154 15.147C19.4154 14.0566 19.0295 13.0316 18.329 12.2605Z" fill="#2CAD29"/>
<path d="M19.6502 10.8058C18.5967 9.64635 17.196 9.00782 15.7062 9.00787C15.5028 9.00787 15.3379 9.18939 15.3379 9.41325C15.3379 9.63713 15.5028 9.81862 15.7062 9.81862C16.9992 9.81857 18.2149 10.3728 19.1293 11.3791C20.0436 12.3853 20.5471 13.7232 20.5471 15.1463C20.5471 15.3702 20.712 15.5517 20.9154 15.5517C21.1188 15.5517 21.2838 15.3702 21.2838 15.1463C21.2838 13.5067 20.7036 11.9652 19.6502 10.8058Z" fill="#2CAD29"/>
<path d="M17.0086 13.7137C16.6557 13.3255 16.2055 13.1204 15.7065 13.1204C15.7065 13.1204 15.7064 13.1204 15.7064 13.1204C15.5028 13.1204 15.3378 13.3019 15.3379 13.5258C15.3379 13.7497 15.503 13.9312 15.7065 13.9311C15.7065 13.9311 15.7065 13.9311 15.7066 13.9311C16.01 13.9311 16.2728 14.0509 16.4875 14.287C16.6991 14.5198 16.811 14.8169 16.811 15.1461C16.8109 15.37 16.976 15.5515 17.1795 15.5515H17.1795C17.383 15.5515 17.548 15.37 17.548 15.1462C17.5481 14.5973 17.3616 14.102 17.0086 13.7137Z" fill="#2CAD29"/>
</svg>
