<svg width="24" height="25" viewBox="0 0 24 25" fill="none" xmlns="http://www.w3.org/2000/svg">
<path d="M8.18115 18.0348C8.18115 18.0933 8.20622 18.11 8.25636 18.11H15.7355C15.794 18.11 15.8107 18.085 15.8107 18.0348V9.18896H8.18115V18.0348ZM13.5795 10.2006H14.4569V17.3408H13.5878V10.2006H13.5795ZM11.5739 10.2006H12.443V17.3408H11.5739V10.2006ZM9.56834 10.2006H10.4374V17.3408H9.56834V10.2006Z" fill="#F55C5C"/>
<path d="M13.8301 5.90265H10.1783V6.68021H13.8301V5.90265Z" fill="#F55C5C"/>
<path d="M16.5543 7.54187H7.44568C7.38718 7.54187 7.37047 7.57531 7.37047 7.62548V8.31943H16.6379V7.62548C16.6379 7.57531 16.6128 7.54187 16.5543 7.54187Z" fill="#F55C5C"/>
<path d="M12 0C5.37326 0 0 5.37606 0 12.0062C0 18.6364 5.37326 24.0125 12 24.0125C18.6267 24.0125 24 18.6364 24 12.0062C24 5.37606 18.6267 0 12 0ZM17.507 8.31909V9.18027H16.688V18.0261C16.688 18.5612 16.2702 18.9709 15.7354 18.9709H8.26462C7.7298 18.9709 7.32033 18.5612 7.32033 18.0261V9.18863H6.49304V8.31909V7.62514C6.49304 7.09004 6.91086 6.672 7.44568 6.672H9.30919V5.47639C9.30919 5.23392 9.50139 5.04162 9.74373 5.04162H9.77716H9.81059H14.1811C14.1894 5.04162 14.2061 5.04998 14.2145 5.05834C14.2228 5.04998 14.2396 5.04162 14.2646 5.04162C14.507 5.04162 14.7075 5.23392 14.7075 5.47639V6.68872H16.571C17.1059 6.68872 17.5237 7.10676 17.5237 7.64186V8.31909H17.507Z" fill="#E94444"/>
</svg>
