<svg width="13" height="14" viewBox="0 0 13 14" fill="none" xmlns="http://www.w3.org/2000/svg">
<path d="M0.0710402 13.5525L3.85865 9.46796C2.89257 8.46328 2.29405 7.07824 2.29405 5.55073C2.29405 2.4899 4.69524 0 7.64703 0C10.5988 0 13 2.4899 13 5.55073C13 8.61156 10.5988 11.1015 7.64703 11.1015C6.35135 11.1015 5.16223 10.6212 4.2354 9.82426L0.438611 13.9189C0.38865 13.973 0.321865 14 0.254826 14C0.191099 14 0.127629 13.9754 0.0781775 13.9263C-0.0232735 13.825 -0.0263329 13.6577 0.0710402 13.5525ZM7.64703 10.5728C10.3177 10.5728 12.4902 8.32002 12.4902 5.55073C12.4902 2.78144 10.3177 0.528641 7.64703 0.528641C4.9764 0.528641 2.80386 2.78144 2.80386 5.55073C2.80386 8.32002 4.97666 10.5728 7.64703 10.5728Z" fill="#2CAD29"/>
</svg>
