<svg width="9" height="10" viewBox="0 0 9 10" fill="none" xmlns="http://www.w3.org/2000/svg">
<path d="M7.49917 7.06874C7.11951 7.06874 6.77968 7.21832 6.52076 7.45415L2.9552 5.37165C2.98093 5.25624 3.00084 5.13999 3.00084 5.01998C3.00084 4.89998 2.98051 4.78415 2.9552 4.66832L6.4805 2.60539C6.74937 2.8554 7.10497 3.01164 7.49917 3.01164C8.33028 3.01164 9 2.34038 9 1.50581C9 0.672909 8.32987 0 7.49917 0C6.66971 0 5.9996 0.672909 5.9996 1.50541C5.9996 1.62707 6.01992 1.74124 6.04524 1.85708L2.51992 3.92166C2.25063 3.67042 1.89545 3.51458 1.50083 3.51458C0.669717 3.51458 0 4.18708 0 5.01998C0 5.85288 0.669717 6.52581 1.50083 6.52581C1.89501 6.52581 2.25063 6.36955 2.5195 6.11957L6.07882 8.20666C6.05434 8.31291 6.03898 8.42374 6.03898 8.53416C6.03898 9.3425 6.69499 10 7.49874 10C8.3033 10 8.95972 9.34292 8.95972 8.53416C8.95972 7.72541 8.30373 7.06874 7.49917 7.06874Z" fill="#2CAD29"/>
</svg>
