<svg width="17" height="4" viewBox="0 0 17 4" fill="none" xmlns="http://www.w3.org/2000/svg">
<path d="M1.78714 3.47541C2.77416 3.47541 3.57429 2.69741 3.57429 1.7377C3.57429 0.777997 2.77416 0 1.78714 0C0.800132 0 0 0.777997 0 1.7377C0 2.69741 0.800132 3.47541 1.78714 3.47541Z" fill="white"/>
<path d="M8.09281 3.47541C9.07982 3.47541 9.87995 2.69741 9.87995 1.7377C9.87995 0.777997 9.07982 0 8.09281 0C7.1058 0 6.30566 0.777997 6.30566 1.7377C6.30566 2.69741 7.1058 3.47541 8.09281 3.47541Z" fill="white"/>
<path d="M14.3982 3.47541C15.3852 3.47541 16.1854 2.69741 16.1854 1.7377C16.1854 0.777997 15.3852 0 14.3982 0C13.4112 0 12.6111 0.777997 12.6111 1.7377C12.6111 2.69741 13.4112 3.47541 14.3982 3.47541Z" fill="white"/>
</svg>
