<svg width="24" height="25" viewBox="0 0 24 25" fill="none" xmlns="http://www.w3.org/2000/svg">
<path d="M8.71875 13.4922C9.90625 13.2109 11 13.0703 12 13.0703C13 13.0703 14.0938 13.2109 15.2812 13.4922C16.4688 13.7734 17.5469 14.2422 18.5156 14.8984C19.5156 15.5547 20.0156 16.2891 20.0156 17.1016V20.1016H3.98438V17.1016C3.98438 16.2891 4.46875 15.5547 5.4375 14.8984C6.4375 14.2422 7.53125 13.7734 8.71875 13.4922ZM9.1875 5.28906C9.96875 4.47656 10.9062 4.07031 12 4.07031C13.0938 4.07031 14.0312 4.47656 14.8125 5.28906C15.5938 6.07031 15.9844 7.00781 15.9844 8.10156C15.9844 9.19531 15.5938 10.1328 14.8125 10.9141C14.0312 11.6953 13.0938 12.0859 12 12.0859C10.9062 12.0859 9.96875 11.6953 9.1875 10.9141C8.40625 10.1328 8.01562 9.19531 8.01562 8.10156C8.01562 7.00781 8.40625 6.07031 9.1875 5.28906ZM16.0781 15.7891C14.7344 15.2578 13.375 14.9922 12 14.9922C10.625 14.9922 9.26562 15.2578 7.92188 15.7891C6.57812 16.2891 5.90625 16.7266 5.90625 17.1016V18.1797H18.0938V17.1016C18.0938 16.7266 17.4219 16.2891 16.0781 15.7891ZM13.5 6.60156C13.0938 6.19531 12.5938 5.99219 12 5.99219C11.4062 5.99219 10.9062 6.19531 10.5 6.60156C10.0938 7.00781 9.89062 7.50781 9.89062 8.10156C9.89062 8.69531 10.0938 9.19531 10.5 9.60156C10.9062 9.97656 11.4062 10.1641 12 10.1641C12.5938 10.1641 13.0938 9.97656 13.5 9.60156C13.9062 9.19531 14.1094 8.69531 14.1094 8.10156C14.1094 7.50781 13.9062 7.00781 13.5 6.60156Z" fill="#009846"/>
</svg>
