<svg width="18" height="14" viewBox="0 0 18 14" fill="none" xmlns="http://www.w3.org/2000/svg">
<path d="M17.084 1.63381C16.4583 1.91107 15.787 2.09909 15.0816 2.18304C15.8018 1.75173 16.3532 1.06762 16.6145 0.254946C15.9389 0.654365 15.1931 0.944394 14.3985 1.10162C13.7622 0.422808 12.8571 0 11.8532 0C9.92725 0 8.36566 1.56159 8.36566 3.48649C8.36566 3.75949 8.39646 4.02613 8.45596 4.28111C5.55801 4.13555 2.9883 2.74713 1.26843 0.637365C0.967794 1.15153 0.796765 1.75065 0.796765 2.39018C0.796765 3.60016 1.41291 4.66778 2.34774 5.29239C1.77621 5.27328 1.23868 5.11606 0.768098 4.85472V4.89828C0.768098 6.58734 1.97063 7.99702 3.56514 8.31785C3.273 8.39646 2.96494 8.44002 2.64624 8.44002C2.42105 8.44002 2.20327 8.41771 1.98974 8.37521C2.43377 9.76153 3.7213 10.7696 5.24678 10.7973C4.05381 11.7321 2.54958 12.2877 0.915766 12.2877C0.634264 12.2877 0.356986 12.2707 0.0839844 12.2399C1.62752 13.231 3.46 13.8089 5.42951 13.8089C11.8448 13.8089 15.3514 8.49527 15.3514 3.88699L15.3397 3.43552C16.0249 2.94682 16.6177 2.33282 17.084 1.63381Z" fill="#ADC0D9"/>
</svg>
