<svg width="19" height="10" viewBox="0 0 19 10" fill="none" xmlns="http://www.w3.org/2000/svg">
<path d="M17.9908 9.0311C17.9696 8.98536 17.9498 8.94742 17.9314 8.91702C17.6273 8.36934 17.0462 7.6971 16.1884 6.9001L16.1703 6.88185L16.1612 6.8729L16.1521 6.86373H16.1429C15.7535 6.49261 15.507 6.24307 15.4038 6.11532C15.2149 5.87195 15.1726 5.62561 15.2758 5.37602C15.3487 5.18743 15.6227 4.78918 16.0971 4.1807C16.3467 3.85823 16.5443 3.59977 16.6902 3.40506C17.7428 2.00572 18.1991 1.11153 18.0591 0.722125L18.0048 0.631127C17.9682 0.576343 17.8739 0.526225 17.722 0.480518C17.5697 0.434907 17.3751 0.427364 17.1378 0.45776L14.5097 0.475915C14.4671 0.460829 14.4063 0.462235 14.3271 0.480518C14.248 0.4988 14.2084 0.507974 14.2084 0.507974L14.1627 0.530827L14.1264 0.558283C14.096 0.576438 14.0625 0.60837 14.026 0.654013C13.9896 0.699496 13.9592 0.752873 13.9349 0.813699C13.6488 1.54984 13.3235 2.23426 12.9584 2.86693C12.7332 3.24419 12.5265 3.57114 12.3377 3.84797C12.1492 4.1247 11.991 4.32859 11.8633 4.45929C11.7355 4.59011 11.6201 4.69492 11.5165 4.77409C11.413 4.85329 11.334 4.88676 11.2793 4.87452C11.2245 4.86228 11.1729 4.85013 11.124 4.83798C11.0389 4.7832 10.9704 4.70869 10.9188 4.6144C10.867 4.52011 10.8321 4.40144 10.8138 4.25847C10.7957 4.1154 10.7849 3.99234 10.7819 3.88888C10.779 3.78554 10.7803 3.63938 10.7865 3.4508C10.7928 3.26212 10.7957 3.13446 10.7957 3.06753C10.7957 2.83631 10.8002 2.58537 10.8092 2.31464C10.8184 2.04392 10.8259 1.82941 10.8321 1.67139C10.8383 1.51321 10.8412 1.34585 10.8412 1.16941C10.8412 0.992979 10.8304 0.854611 10.8092 0.754184C10.7882 0.653884 10.7561 0.556526 10.7136 0.462139C10.671 0.367849 10.6085 0.294909 10.5266 0.24313C10.4445 0.191414 10.3424 0.150373 10.2209 0.119881C9.8984 0.0469095 9.48777 0.00743533 8.9888 0.00129845C7.85728 -0.0108474 7.13022 0.0622196 6.80778 0.220404C6.68002 0.287238 6.56441 0.378556 6.46105 0.49407C6.35151 0.627962 6.33623 0.70103 6.41531 0.713048C6.78039 0.767736 7.03884 0.89856 7.19095 1.10539L7.24577 1.21499C7.28841 1.29407 7.33098 1.43407 7.37359 1.63479C7.41613 1.83552 7.44359 2.05757 7.45567 2.3008C7.48603 2.74499 7.48603 3.12522 7.45567 3.44153C7.42521 3.75796 7.39644 4.0043 7.36898 4.18073C7.34153 4.35717 7.30049 4.50014 7.24577 4.60961C7.19095 4.71911 7.15448 4.78604 7.1362 4.81034C7.11795 4.83463 7.10273 4.84994 7.09065 4.85595C7.01158 4.88625 6.92933 4.90169 6.84422 4.90169C6.75897 4.90169 6.6556 4.85905 6.53395 4.77384C6.41234 4.68862 6.28611 4.57157 6.15529 4.4225C6.02447 4.27339 5.87693 4.06503 5.7126 3.79737C5.54841 3.52971 5.37805 3.21338 5.20161 2.84836L5.05564 2.58364C4.96439 2.41334 4.83973 2.16538 4.68155 1.83996C4.52327 1.51442 4.38336 1.19952 4.26175 0.895332C4.21313 0.767576 4.14009 0.670314 4.04277 0.603383L3.99709 0.575927C3.96673 0.551635 3.91798 0.525841 3.85112 0.498353C3.78416 0.470897 3.71428 0.451208 3.64122 0.439094L1.14079 0.457249C0.885283 0.457249 0.711916 0.515133 0.62063 0.630743L0.584097 0.685432C0.565846 0.715892 0.556641 0.76454 0.556641 0.831502C0.556641 0.898432 0.574891 0.980577 0.611425 1.07784C0.976441 1.93572 1.37339 2.76308 1.80227 3.56004C2.23114 4.35701 2.60383 4.99898 2.9201 5.48539C3.23644 5.97216 3.55888 6.43156 3.88743 6.86338C4.21597 7.29535 4.43345 7.57219 4.53985 7.6938C4.64639 7.81565 4.73007 7.90674 4.79089 7.96757L5.01907 8.18654C5.16508 8.33258 5.37949 8.50748 5.66239 8.71125C5.94536 8.91514 6.25863 9.11586 6.60235 9.31375C6.94615 9.51131 7.3461 9.67253 7.80243 9.79722C8.2587 9.92203 8.70279 9.97212 9.13477 9.94795H10.1842C10.3971 9.92957 10.5583 9.86264 10.6679 9.74713L10.7042 9.70139C10.7287 9.66508 10.7515 9.60867 10.7726 9.53276C10.794 9.45672 10.8046 9.37294 10.8046 9.28181C10.7983 9.02026 10.8183 8.78454 10.8638 8.57467C10.9093 8.36486 10.9611 8.20668 11.0191 8.10015C11.077 7.99371 11.1424 7.9039 11.2152 7.83108C11.2881 7.75811 11.3401 7.71391 11.3706 7.69869C11.4009 7.68338 11.4251 7.673 11.4434 7.66676C11.5894 7.61812 11.7612 7.66523 11.9591 7.80833C12.1569 7.9513 12.3423 8.12783 12.5158 8.33763C12.6892 8.54763 12.8976 8.78323 13.1409 9.04478C13.3843 9.30643 13.5972 9.50092 13.7797 9.62887L13.9621 9.73837C14.0839 9.81144 14.2421 9.87837 14.4368 9.9392C14.6312 9.99999 14.8015 10.0152 14.9477 9.98481L17.2838 9.94837C17.5149 9.94837 17.6947 9.91011 17.8222 9.8342C17.95 9.75816 18.0259 9.67438 18.0504 9.58326C18.0748 9.49203 18.0761 9.38854 18.055 9.27283C18.0334 9.15742 18.012 9.07671 17.9908 9.0311Z" fill="#ADC0D9"/>
</svg>
